<svg xmlns="http://www.w3.org/2000/svg" viewBox="0 0 32 32"><g data-name="2-brake"><path fill="#101820" d="M17,24a7,7,0,1,1,7-7A7,7,0,0,1,17,24Zm0-12a5,5,0,1,0,5,5A5,5,0,0,0,17,12Z"/><path fill="#101820" d="M14 18.5a1.5 1.5 0 0 0 0-3 1.5 1.5 0 0 0 0 3zM20 18.5a1.5 1.5 0 0 0 0-3 1.5 1.5 0 0 0 0 3zM17 15.5a1.5 1.5 0 0 0 0-3 1.5 1.5 0 0 0 0 3zM17 21.5a1.5 1.5 0 0 0 0-3 1.5 1.5 0 0 0 0 3z"/><path fill="#101820" d="M11.09,17H3a1,1,0,0,1-1-1A14,14,0,0,1,16,2a1,1,0,0,1,1,1v8.09a1,1,0,0,1-.83,1,5,5,0,0,0-4.09,4.09A1,1,0,0,1,11.09,17ZM4,15H10.3A7,7,0,0,1,15,10.3V4A12,12,0,0,0,4,15Zm12-3.91h0Z"/><path fill="#101820" d="M17,30A13,13,0,0,1,4,17c0-.37,0-.72.05-1.08a1,1,0,0,1,1-.92H10.3A7,7,0,0,1,15,10.3V5.05a1,1,0,0,1,.92-1C16.28,4,16.63,4,17,4a13,13,0,0,1,0,26ZM6,17A11,11,0,1,0,17,6v5.09a1,1,0,0,1-.83,1,5,5,0,0,0-4.09,4.09,1,1,0,0,1-1,.83Zm10-5.91h0Z"/></g></svg>