<svg overflow="visible" viewBox="17.7 -784.5 373.6 776.5" xmlns="http://www.w3.org/2000/svg"><g color="#000" fill="none" stroke="currentColor" stroke-width="1.1"><path d="M339.8-302.5a110.5 110.5 0 010 2.5M328.5-299.7a78.8 78.8 0 000-2M207-456.3a107.2 107.2 0 00-4.9 0M202.1-17.7a216 216 0 004.9 0M207-12.8a108 108 0 01-4.9 0M202.1-439a108 108 0 014.9 0M335-509a328 328 0 01-1.4-2.6M203.4-757.8a20.6 20.6 0 00.1-.1M369-83a26.7 6.6-22.1 001.3-1M345.6-58.2a4.2.7-1.5 00.1-.2M345.2-57.7a49.6 11.7-61 00.4-.5M317.2-30a69.2 7.4-17.8 002.3-1.2M91.8-30a141.9 49-22.8 002.5 1M89.6-31.2a53.4 10.5-17 002.2 1.1M63.3-58.4a2.2.7-2.6 00.2.2M38.7-84a29.3 8.3-36 001.3 1M31.4-116.6a58 45.4-50.4 00.1 3M19.2-460.4a12.1 8-34.7 00-.4.7M19.3-460.6a5.7.8-.2 000 .1M64.5-718a186.4 35-45.8 00-.8 1M345.4-717a41.3 278.8-16.7 00-.8-1M389.8-460.6a.7 2.7-86.2 000 .1M390.3-459.7a35.6 9-1.6 00-.4-.7M388.6-452.3a796.4 31.1-60.8 002.3-.3M377.5-113.6a45.5 64.9-41.3 00.1-3M377.5-112.4a14.4 47.8-42.6 000-1.2M359.9-287.3a118.5 808.2 3.8 003.9.6M316.7-39.6a357.4 1831.3-53 006.8-3.5M345.2-57.6a27 193-27.1 00-2.3.2M339.8-302.5a104.5 54.7-11.7 000-2.2M335.4-302.7a493.9 112.4-48.2 000-2M332.8-460.8a13.9 38.5-33.8 000-1.4M69.2-705.5a6.6 1.7-73.5 00-.2.3M66.3-700.2a3.4 14.3-32.2 00-.3 1M345.2-683.4a8.3 1-25.6 000 .1M346.5-698a35.5 10-52.8 00-.5-1.6M343.5-706a124.6 828.8-72.3 00-2.6-4.7M301.4-723.3a84.3 397.5-56.3 003.5 6M309.4-710.4a222.5 1237.2-1.8 005.6 7.4M359.5-301.3a65.3 1277.4-52.3 001 2M139.7-677.8a106.1 542 8 00-3.2 3.5M94.3-567.1a62.7 268.2-78.3 00-.4 2M141.8-675.9a46.4 281-20 00-3 3.5M311.6-734.2a633.1 43.6-55.7 00-4.8-3.6M307.4-462.2a109.4 43.3-73.8 001-1.9M100.6-464a469.2 97-43 001 1.8M114.9-743.5a61 1222.3-35.9 00-1.3-3.6M114.9-741.9a324.4 33.9-40.1 000-1.6M156.7-150a.5 2.9-45.9 00-.1 0M224.2-592.7a1 8-58.6 00-.7-.5M63-699.6a109.5 24.6-23 00-.4 1.6M68.1-710.7a1070.7 143-21 00-2.5 4.6M96.2-739.7a57 468-23 00-4 3.3M112.2-743a20 211.5-20 00-.8-1.1M112.4-742a6.8 70.3-15.7 00-.3-1M69.2-304.7a56.6 113.2-52.7 000 2.2M76.3-462.2a55.5 19.3-30.9 000 1.4M73.6-304.7a112.4 493.8-41.8 000 2M73.6-302.7a1580.9 412-62.8 007 3M108.1-201a171.5 630-26 00.5 5.6M109.4-215.7a518 409.6-40.5 00.4 9.4M299.3-206.3a475.3 343.9-68.3 00.4-9.4M270.3-672.4a129.2 29.2-66.7 00-3-3.5M292.2-629a142.5 58.4-42.1 00-.8-2.7M315.1-565.1a38 52.4-4.8 00-.3-2M272.6-674.3a83.4 481 2 00-3.2-3.5M345.7-704.7a444.8 134.6-10.4 00-2.2-4.2M347-701.7a42 426.5-59.1 00.2.5M348.5-697.5a143.6 63.4-36.5 00-1.3-3.7M349-695.7a43 13.4-53.7 00-.5-1.8M292.6-743.5a46.9 1.1-76.7 00.4 2M116.1-741.5a1.1 46.9-13.3 00.4-2M60.5-697.5a5.5 54.6-22.6 00-.5 1.8M61.9-701.2a44.6 116-28.7 00-1.4 3.7M65.5-708.9a733.7 176-13.2 00-2.2 4.2M295.4-747a1426.7 67-51 00-1.2 3.5M294.2-743.5a265.8 27.3-52.2 000 1.6M113.6-747a23.4 54.3-43.2 00-1.6-.8M97-742.1a70.6 488.1-19.8 00-4.5 3.6M108-434.2a41.7 14.2-34 00-1.5 0M66-709.9a30.9 15.6-43.5 00-.5 1M207-74.1a182.4 415.8-4.7 005.1-.3M193-74.8a122.4 357.2-9 004 .4M202.1-436.5a284.7 120.2-21.3 00-6 0M299.7-434.3a17 71-62.7 001.5 0M302.6-434.2a28.1 136.5-50 00-1.4 0M172.4-19.5a192.6 398.5-57.9 007.6.7M229-18.8a195 395.9-57.8 007.7-.7M172.4-14.5a363.5 131-19.8 007.6.7M99.5-36.7a10.8.9-23 00-1-.4M150.9-22.7a191.6 500.2-63.3 007.7 1.3M311.8-454.1a3.1.2-63.8 000 0M97.3-454a.2 3.1-26.2 000-.1M67.6-489.3a78.3 156-21.3 001.7 4.2M69.3-485a264.9 79.6-78.3 002.7 6.2M72.8-476.9a219.6 293.4-14 003.4 7.1M332.8-469.8a293.4 219.6-76 003.4-7.1M337-478.8a325.6 216.1-59.6 002.7-6.3M309.8-455.3a236.5 87-49.4 001.2-2M98-457.3a51.6 79.9-41.2 001.2 2M75.5-511.6A26.6 76.8-44.5 0074-509M199.6-762a1.3 5.7-18.5 00.2.2M200.8-761.5a1.8 3.4-5.1 00.2-.1M200.2-761.3a.1 1 1 000 0M207.4-763.7a1.6 10.5-72.8 00-.2-.1M205.1-764a2.9.5-3.5 00-.1.1M204.3-763.9a6.9.5-.2 000-.1M205.3-758.8a3 .2-63.8 000 0M206.5-758.7a20.3 257.7-63.5 00.2-1.3M204.4-758a254.2 20.2-63.4 001.2-.3M203-758.1a.7 4.3 2 00.2.2M210.3-761.5a25.2 6.4-45.1 00.3-.5M210.6-762a26.4 508.7-74 000-1.3M209.6-764.3a11.3 52.7-66.7 00-1-.4M205.9-765.3a38 129.3-8.7 00-2 0M204-765.4a.7 34-74 00-.5 0M203.5-765.3a2.5 18.7-65.2 00-.5 0M200.1-764.5a9.4 108.2-78.5 00-.6.4M199-763.7a17.7 264.5-85.5 00-.5 1M202.6-757.5a25 2.5-79.6 00.4.3M203-757.2a11 122.8-26.2 00.4.3M205.2-756.6a141.5 16.9-53.1 001.1-.7M197.5-761.5a48.5 335.2-69.6 00.6 2.5M198.1-759a70.4 605-53 001.5 2M199.6-757a50.9 349.5-35.9 002.2 1.5M201.8-755.5a77 816.1-15 002.8.5M204.6-755a433 62.1-71.6 002.7-.5M210.9-764.5a84.2 1095.3-61 00-1.5-2M199.8-766.6a60.5 610.3-60.8 00-1.5 2M198.3-764.6a78.2 962.8-71.3 00-.6 2.5M198.2-759.4a66.6 703.5-54.8 001.5 2.2M199.7-757.2a66.7 581.4-36.3 002.3 1.5M207.4-755.8a941.7 80.9-52 002.1-1.4M207.7-759.1a16 .3-41.9 00-.5.6M210-761.6a32.3 848.5-80.7 00.4-.9M209.6-763.7a5.1 15-65.6 00-.4-.3M209.2-764a28.6 122.2-24.8 00-.9-.3M207.5-764.7a4.7 22.5-63.3 00-1.4-.3M204-765a37.2 255.5-37.3 00-1.8.2M199.3-763.5a12.6 100.8-84 00-.4.9M198.9-762.6a14 164-80.4 00.1.8M199-761.8a5.7 34.4-89.1 00.3.4M202.8-757.7a48.6 4.2-22.6 00-.5-.5M206-757.3a1.9 16-14.9 00.2-.3M237.2-70.5a.3 1.6-29.4 00-.2 0M264.6-247.8a29.8 13.1-2.8 00-1.8 0M292.7-205a29.9 93.4-24 00.1-2.1M116.3-207.1a94.6 30.4-64.9 00.1 2M129-92.2a1101.2 541.9-20.6 002.7 8.6M314.8-33.7a1637 360.8-51.6 008.7-4.5M374.5-91.3l-.1.4M347.1-60.3l-.3.5M345.2-57.7v.1M229.1-9v-4.8M226-13.5v4.7M206.9-8h-4.8M183-8.8v-4.7M180-13.8V-9M63.9-57.6l-.1-.1M62.3-59.8l-.4-.5M34.7-90.9l-.2-.4M31.7-110.2l-.1-2.2M51.7-468.5l-2.6.1M45.4-464.6l-25 12.3M17.7-454.3v-.5M19.2-460.4v-.1M39.4-478.9l.3-.1M48-481.1l2.6-.5M62.2-715.1l1-1.3M345.8-716.4l1.1 1.3M358.5-481.6l2.6.5M369.3-479l.3.1M389.8-460.5l.1.1M391.3-454.8v.5M388.6-452.3l-24.9-12.3M359.9-468.4l-2.5-.1M377.5-112.4l-.1 2.2M364.9-286.7h-1.1M362.1-104.6l-.3.7M306.9-35.8l2.7-.9M310.4-37.1l-.8.4M302.1-289.6v62.2M301-201.5l-.1.5M287.5-119.4l-7.3 26.6M357.4-468.5l-2.1-.1M355.3-468.6l-8.5-.5M346.8-469.1l-5.3 2.6M341.5-466.5l-4.5 2.2M330.1-459.4l2.7-1.4M356.5-482l-.7 8.6M360.6-475.2l-.7 6.8M69-705.2l-.8 1.3M344.6-703.4l-1.1-2.7M360.6-299.3l2.3 2.4M362.1-305.5l-1.7-.5M48.5-475.2l.6 6.8M62.3-469.1l5.3 2.6M18.2-452.6l24.2-12M44.3-468.6v-1.5M48.5-475.2l-.5-5.9M184.9-592.7l5.6-103.8M139.7-677.9v.1M94.7-569.1l-.4 2M138.8-672.4h0M187.3-686.5l-3.1 32.7M340.1-705.2l.7 1.3M312.8-440.1l1.1 3M330.1-459.4l-4.1 2.2M361.1-481.1l-.5 5.9M364.8-470.1v1.5M366.7-464.6l24.2 12M336.2-476.9l11.7-2.2M341.5-489.3v4.5M341.5-484.8l1.8.4M343.3-484.4l11.6 2.1M354.9-482.3l1.6.3M356.5-482l2 .4M346.8-469.1l9-4.3M337-464.3l-4.2 2.1M196.1-289.4H213M232.3-147.1l-16.2 72.3M44.1-286.7h1.2M48.5-299.3l-2.3 2.4M46.9-305.5l1.7-.5M307.4-462.2h0M293.9-454.4h0M293.9-454.4h-.1M115.3-454.4h-.1M115.2-454.4h0M101.6-462.2h.1M116.6-750.4l-3 3.3M190.5-696.5l2.6-47M216-743.5l2.6 47M196.1-436.5v147.1M178.9-228.8h-25.1M142.9-219.8v7.2M148-162.8v.1M164.7-149.8l12.2.5M184.2-162.7v-59.4M186.4-170v7.3M176.8-147.1h0M176.8-147.1L193-74.8M176.8-147.1l-12.2-.5M146.1-161.6h0M143.1-171.1v-.1M140.7-212.6v-7.2M153.8-231H179M223.5-593.2l-9.2-7.5M194.8-600.7l-9.2 7.5M173.5-587.5l-.3.1M64.5-703.4l1.1-2.7M193.1-743.5H216M46-519.2l13.4 13.6M72-464.3l-4.4-2.2M313.2-292.3l1.4-2.6M266.2-219.8v7.2M261.1-162.8v.1M244.3-149.8l-12.1.5M224.9-162.7v-59.4M230.2-228.8h25M78.9-459.4l-2.6-1.4M76.3-462.2l-4.3-2.1M210.7-152.1h-12.3M196.5-153.5v.1M194.4-172.7v-52.9M197.4-229.1h14.3M214.7-225.6v52.9M212.6-153.4v-.1M213-436.5v147.1M213-289.4h66.8M279.8-287.1H129.3M107-289.6v62.2M108-202.6l.1 1.6M109.9-204.9l-.1-1.4M202.1-261.3h3.7M299.3-206.3l-.1 1.4M255.2-231h-25.1M222.7-222.1v52.1M222.7-170v7.3M232.2-147.1h.1M232.3-147.1l12.1-.5M263-161.6h0M266-171.1v-.1M268.4-212.6v-7.2M224.9-653.8l-3.1-32.7M270.3-672.4h0M314.8-567.1l-.5-2M269.4-677.8v-.1M218.6-696.5l5.6 103.8M235.6-587.5l.3.1M345.7-704.7l1.3 3M292.5-750.4h0M206.9-774.4h-.8M206.1-774.4h-4M62-701.7l1.3-3M292.5-750.4l2.9 3.3M78.9-459.4l4.2 2.2M61.1-479.1l-1.5-.4M54.2-482.3l-1.7.3M51.7-468.5l2.1-.1M53.3-473.4l-.8-8.6M69.3-485.1l-1.7.3M67.6-484.8l-1.9.4M61.1-479.1l11.7 2.2M52.5-482l-1.9.4M53.8-468.6l-.5-4.8M53.8-468.6l8.5-.5M62.3-469.1l-9-4.3M65.7-484.4l-11.5 2.1M96.3-440.1l-1.1 3M107-422.6v130.8M216.8-170.4v16.4M218.9-171.2v-59.3M213.7-236.5h-18.4M190.2-230.5v59.3M192.3-154v-16.4M192.2-172.6v-53.1M197.4-231.3h14.3M216.9-225.7v53.1M194.3-153h0M198.1-149.8h.2M198.3-149.8h12.5M210.8-149.8h.1M214.8-153h0M196.1-289.4h-66.8M94.5-294.9l1.4 2.6M222.7-222.1v-9.4M226.3-235.2h34.1M269.4-223.4v10.8M234.4-78.9h-.1M232.3-78.3h0M205.4-74.1h-2.3M203.1-74.1h-1M176.8-78.3h0M174.8-78.9h-.1M139.7-212.6v-10.8M148.7-235.2h34.1M186.4-231.5v9.4M186.4-222.1v52.1M197-74.4l-3.4-38.4M128.9-92.8l-7.3-26.6M99.5-36.7l-.9-.4M339.7-485.1l1.8.3M108.7-436.7l-.8 2.5M202.1-436.5h3.7M205.8-436.5h7.2M301.2-434.2l-.8-2.5M302.1-422.6v130.8M347.9-479.1l1.6-.4M355.8-473.4l-.5 4.8M172.4-14.5v4.7M215.5-112.8l-3.4 38.4M46.9-104.6l.3.7M99.5-36.7l2.7.9M363.1-519.2l-13.5 13.6M295.6-444.7h-.1M206.9-446.7h-4.8M113.6-444.7h-.1M309.8-455.3h.1M295.6-446.9h0M295.6-446.9h-.1M206.9-448.9h-4.8M113.6-446.9h-.1M113.5-446.9h0M99.2-455.3h0M204.5-758.8h0M204.5-758.8v-.1M200.3-761.8h.2M200.1-761.4h0M200.2-761.3v.1M202.3-762h0M205.2-764v-.1M204.9-758.9l.1.1M205-758.8h.3M205.3-758.8h0M205.7-758.7h0M203-758.4h0M203-758.4h-.1M202.9-758.4h0M203.5-757.9h.1M203.6-757.9h.1M203.7-757.9h.1M200.1-760.1l1.5 1.4M204.2-765.1h-.3M200.7-759.9l1.1 1.2M209.7-762.3h0M209.7-762.3l.1-.1M209.8-762.4l-.1-.1M209-762.6h0M206.9-65.2h-1.1M205.8-65.2h-2.6M203.2-65.2h-1.1M146.2-98.2h0M130.9-212.4v-.1M130.9-212.5v-21.8M146.3-247.8h116.5M278.2-234.3v21.8M278.2-212.5v.1M262.8-98.2h0M277.4-83.6v-16.3M292.8-207.1l1.2-24.5M206.9-255.5h-1.1M205.8-255.5h-3.7M115.1-231.6l1.2 24.5M131.7-99.9v16.3M73.7-300.4l-4.4 1.2M69.3-299.2h0M202.1-50.2h1.2M203.3-50.2h2.5M205.8-50.2h1.1M236.7-14.5v4.7M339.8-299.2h-.1M339.7-299.2l-4.3-1.2M377.2-108v1.2l-.1.6v.6l-.1.6-.1.6v.6l-.1.6-.1.6v.6l-.2.6v.5l-.1.6-.1.6-.1.5v.6l-.2.5v.6l-.2.5v.6l-.2.5-.1.5-.1.5-.1.6-.2.5v.5l-.2.5-.1.5-.2.5v.5M374.4-90.9l-.1.3-.1.3v.3l-.2.2v.3l-.2.2-.1.3-.1.2-.1.3-.1.2-.2.3v.2l-.2.2-.1.3-.2.2-.1.2-.2.2-.1.2-.2.3-.1.2-.2.2-.1.2-.2.2-.2.2-.1.2-.2.2-.2.2-.2.1-.1.2-.2.2M369-83l-.7.5-.7.6-.8.6-.7.6-.8.6-.7.6-.8.7-.7.6-.8.7-.7.7-.7.7-.8.7-.7.7-.7.7-.8.8-.7.7-.7.8-.8.8-.7.8-.7.8-.7.9-.8.8-.7.9-.7.8-.7 1-.7.8-.8 1-.7.9-.7 1-.7.9M346.8-59.8h0l-.1.1h0v.1h-.1v.1h0l-.1.1h0v.1h-.1v.1h-.1 0v.1h-.1v.1h0l-.1.1h0v.1h-.1v.1h0l-.1.1h0l-.1.1h0v.1M345.2-57.6l-.6.8-.7.8-.6.7-.6.8-.6.7-.7.8-.6.7-.7.7-.7.7-.7.7-.6.7-.7.7-.7.7-.7.7-.8.6-.7.7-.7.6-.8.6-.7.6-.8.6-.7.6-.8.6-.8.6-.8.5-.8.6-.8.5-.8.6-.8.5-.8.5-.9.5M323.5-38.2v.7l-.1.3-.1.2v.3l-.2.3v.3l-.1.3-.1.2-.1.3-.1.3-.1.2-.2.3v.2l-.2.2-.2.3-.1.2-.1.2-.2.2-.2.2-.1.2-.2.2-.2.2-.2.2-.2.2-.2.2-.2.1-.2.2-.2.2-.2.1M317.2-30h0-.2 0l-.2.1h0-.1l-.1.1h0l-.2.1h0-.1l-.1.1h-.1 0l-.2.1h0-.1l-.1.1h0l-.2.1h0-.1l-.1.1h-.1 0l-.2.1h0-.1l-.1.1M314.8-29l-2.6 1-2.6 1-2.6.9-2.6.9-2.6.9-2.6.9-2.6.8-2.6.8-2.6.8-2.6.8-2.6.7-2.6.7-2.6.7-2.6.7-2.6.7-2.6.6-2.6.6-2.6.6-2.6.5-2.6.6-2.6.5-2.6.5-2.6.4-2.7.5-2.6.4-2.6.4-2.6.4-2.6.3-2.6.3-2.6.3M236.7-9.8h-.6l-.2.1h-.5l-.3.1h-.7l-.3.1h-.7l-.3.1h-.8l-.2.1h-1l-.3.1h-.7l-.3.1h-.7M229-13.8h0-.4 0l-.2.1h0-.2 0-.2 0-.2 0-.2 0-.2 0-.2v.1h-.2 0-.2 0-.2 0-.2 0-.2 0M226-8.8h-.6l-.6.1H223.5l-.6.1h-.7l-.6.1H220.3l-.6.1H218.4l-.6.1h-1.9l-.7.1h-1.9l-.6.1h-4.5l-.6.1M202.1-8H197l-.6-.1H193.8l-.6-.1h-1.9l-.7-.1h-1.2l-.7-.1h-1.2l-.7-.1h-.6l-.6-.1H184.3l-.6-.1M183-13.5h0-.2 0-.2 0-.2 0-.2 0l-.2-.1h0-.2 0-.2 0-.2 0-.2 0-.2 0-.2 0l-.2-.1h0-.2 0-.2 0M180-9h-.7l-.3-.1h-.8l-.2-.1h-.8l-.2-.1h-.8l-.2-.1h-.8l-.2-.1h-.8l-.3-.1h-.7l-.3-.1h-.2M172.4-9.8l-2.6-.3-2.6-.3-2.6-.3-2.6-.4-2.7-.4-2.6-.4-2.6-.5-2.6-.4-2.6-.5-2.6-.5-2.6-.6-2.6-.5-2.6-.6-2.6-.6-2.6-.6-2.6-.7-2.6-.7-2.6-.7-2.6-.7-2.6-.7-2.6-.8-2.6-.8-2.6-.8-2.6-.8-2.6-1-2.6-.8-2.6-1-2.6-.8-2.6-1M89.6-31.2l-.2-.1-.2-.2-.3-.2-.2-.1-.2-.2-.2-.2-.1-.2-.2-.2-.2-.2-.2-.2-.1-.2-.2-.2-.1-.2-.2-.2-.1-.3-.2-.2v-.2l-.2-.3-.1-.2-.1-.3-.1-.3-.1-.2-.1-.3v-.3l-.2-.3v-.5l-.1-.3-.1-.4M85.6-38.2l-.9-.5-.8-.5-.8-.5-.8-.6-.9-.5-.8-.6-.7-.5-.8-.6-.8-.6-.8-.6-.7-.6-.8-.6-.7-.6-.8-.6-.7-.7-.7-.6-.7-.7-.7-.7-.7-.7-.7-.7-.7-.7-.6-.7-.7-.7-.7-.7-.6-.8-.7-.7-.6-.8-.6-.7-.6-.8"/><path d="M63.8-57.7h0v-.1h0-.1 0v-.1h0l-.1-.1h0v-.1h0-.1 0v-.1M63.3-58.4h0v-.1h-.1v-.1h0l-.1-.1h0l-.1-.1h0v-.1h-.1v-.1h0l-.1-.1h0v-.1h-.1v-.1h0l-.1-.1h0v-.1h-.1v-.1h0-.1v-.1h0l-.1-.1M62-60.3l-.8-1-.7-1-.7-.9-.7-.9-.7-.9-.8-.9-.7-.8-.7-.9-.7-.8-.7-.9-.8-.8-.7-.8-.7-.8-.7-.8-.8-.7-.7-.8-.7-.7-.8-.7-.7-.7-.8-.7-.7-.7-.7-.7-.8-.6-.7-.7-.8-.6-.7-.6-.8-.6-.7-.6-.8-.6-.7-.5M38.7-84l-.1-.3-.2-.2-.2-.1-.2-.2-.1-.2-.2-.2-.2-.2-.1-.2-.2-.2-.1-.2-.2-.2-.1-.3-.2-.2-.1-.2-.2-.2v-.2l-.2-.3-.1-.2-.2-.2v-.3l-.2-.2-.1-.3-.1-.2-.1-.3-.1-.2-.1-.3-.1-.2-.1-.3-.1-.3v-.3M34.5-91.3l-.1-.5-.1-.5-.2-.5-.1-.5-.1-.5-.1-.5-.2-.5v-.6l-.2-.5v-.5l-.2-.6-.1-.5-.1-.6-.1-.5v-.6l-.2-.5v-.6l-.1-.5-.1-.6-.1-.6v-.6l-.2-.6v-1.2l-.1-.6-.1-.6v-.6l-.1-.6v-.6l-.1-.6M31.8-108h0v-.2h0v-.1h0v-.2h0v-.1h0v-.2h0v-.1h0v-.2h0v-.1h0v-.2h0v-.1h0v-.2h0v-.1h-.1V-110.2h0v-.1M31.6-112.4h0v-.1h0v-.1h0v-.1h0v-.1h0v-.1h0v-.1h0v-.1h0v-.1h0v-.1h0v-.1h0v-.1h0v-.1h0M31.4-116.6v-3l-.2-2.9v-3l-.1-2.9v-3l-.1-3v-2.9l-.1-3v-5.9l-.1-3V-173l.1-3v-3l.1-3 .1-3v-3l.2-3v-3l.1-3 .1-3.1.1-3 .2-3M31.8-206.3v-4l.1-1.3.1-1.2.1-1.2.1-1.2.1-1.2.1-1.2.1-1.1.2-1.1.1-1.1.2-1 .1-1.1.2-1 .2-1 .2-1 .2-.9.2-.9.3-.9.2-.8.3-.8.2-.9.3-.7.3-.8.3-.7.3-.7.3-.7.3-.7.4-.6M37.3-236l.1-.4.1-.2.2-.3v-.3l.2-.3.1-.3.1-.2.2-.3v-.3l.2-.4v-.3l.2-.3v-.3l.2-.3v-.4l.2-.3v-.3l.1-.4.1-.3.1-.4v-.3l.1-.4.1-.3v-.4l.2-.4v-.7l.1-.4v-.4l.1-.4"/><path d="M40-246l.2-1.4.1-1.4.2-1.4.1-1.4.2-1.4.1-1.4.2-1.3.1-1.4.1-1.4.2-1.4.1-1.3.2-1.4.1-1.4.1-1.3.2-1.4.1-1.3.2-1.4v-1.4l.2-1.3.2-1.3v-1.4l.2-1.3.1-1.4.2-1.3.1-1.3.1-1.4.2-1.3v-1.3l.2-1.3.1-1.3M44.1-286.7l.7-7.5.7-7.3.6-7.3.6-7.1.6-7.1.5-7 .5-6.8.5-6.8.4-6.7.4-6.6.4-6.5.4-6.4.3-6.3.3-6.2.3-6 .2-6 .2-6 .2-5.8.1-5.7.1-5.7.1-5.5v-5.4l.1-5.4v-15.4l-.2-5-.1-4.9-.2-4.7-.1-4.7M49.1-468.4v.2l-.2.1v.2l-.2.1v.2l-.2.1v.2l-.2.1-.1.2-.1.1-.1.1-.1.2-.2.1v.1l-.2.2h-.1l-.2.2v.1l-.2.1-.2.2h0l-.2.2h-.2l-.1.2-.2.1-.1.1-.1.1h-.2l-.2.2h-.1M20.4-452.3h0l-.2.1h0-.2v.1h-.2 0-.4v.1h-.2 0-.2 0-.2v-.1h-.2v-.1h-.1v-.1h-.2v-.1l-.1-.1h0M18.2-452.6h0-.1 0v-.1h0l-.1-.1h0v-.1h0v-.1h-.1v-.1h0v-.2h0l-.1-.1h0v-.2h0v-.2h0v-.2h0v-.2h0v-.1M17.7-454.8v-2l.1-.1v-.4l.1-.1V-457.7l.1-.2v-.2l.1-.1v-.2l.1-.1v-.2l.1-.1v-.2l.2-.1v-.2l.1-.1v-.1l.2-.2M19.3-460.6l.6-.7.5-.7.6-.7.5-.7.6-.7.6-.7.6-.6.6-.7.6-.7.6-.6.6-.6.7-.7.6-.6.7-.6.7-.6.6-.6.7-.6.7-.6.7-.6.7-.6.7-.6.8-.5.7-.6.8-.5.7-.6.8-.5.8-.5.7-.5.8-.6.8-.5M39.7-479l.3-.1.2-.2.3-.1.2-.1.3-.1.2-.2h.3l.2-.2h.3l.3-.2h.2l.3-.2h.3l.2-.1h.3l.3-.1.3-.1h.2l.3-.1h.3l.3-.1h.6l.3-.1H48M50.6-481.6l-.2-1.2-.1-1.3-.1-1.2-.2-1.2-.1-1.3-.2-1.2-.1-1.2-.1-1.3-.2-1.2-.1-1.2-.2-1.3-.1-1.2-.2-1.3-.1-1.2-.2-1.3-.1-1.2-.2-1.3-.1-1.2-.2-1.3-.2-1.3-.1-1.2-.2-1.3-.1-1.3-.2-1.2-.2-1.3-.1-1.3-.2-1.2-.2-1.3-.2-1.3-.1-1.3M46-519.2l-.2-1.2-.2-1.1-.1-1.2-.2-1.2-.2-1.2-.1-1.2-.2-1.2-.2-1.2-.2-1.2-.1-1.3-.2-1.2-.2-1.2-.2-1.2-.2-1.2-.1-1.2-.2-1.2-.2-1.2-.2-1.3-.2-1.2-.2-1.2-.2-1.2-.2-1.2-.2-1.3-.2-1.2-.2-1.2-.2-1.3-.2-1.2-.2-1.2-.2-1.3-.2-1.2"/><path d="M40.4-555.6l-.5-3.7-.5-3.8-.5-3.7-.4-3.8-.4-3.7-.4-3.8-.3-3.8-.3-3.7-.3-3.8-.2-3.8-.2-3.9-.2-3.8-.1-3.8-.1-3.8V-628l.1-3.9.2-3.8.2-4 .2-3.9.2-3.9.3-4 .3-3.9.4-4 .4-3.9.4-4 .4-4"/><path d="M39.1-671.1v-.5l.1-.2v-.7l.1-.1V-673.5l.1-.1v-.7l.1-.1v-.7l.1-.2v-.8M39.7-676.1v-.6l.1-.7.1-.6.1-.6v-.6l.2-.6v-.6l.2-.6v-.6l.1-.5.1-.6.1-.6.1-.6.1-.5.1-.6.1-.5.2-.5v-.6l.2-.5v-.5l.2-.6.1-.5.1-.5.2-.5v-.5l.2-.5.1-.5.2-.4v-.5l.2-.5M42.8-692.6l.6-.6.6-.7.7-.6.6-.7.6-.7.6-.7.7-.6.6-.7.6-.7.7-.7.6-.8.6-.7.7-.7.6-.8.7-.7.6-.8.7-.7.6-.8.7-.8.6-.7.7-.8.6-.8.7-.8.7-.8.6-.9.7-.8.7-.8.6-.9.7-.8.7-.9M63.2-716.4h0l.1-.1h0v-.1h.1v-.1h.1v-.1h.1v-.1h0M64.5-718l1.2-1.5L67-721l1.3-1.5 1.2-1.5 1.4-1.5 1.3-1.5 1.3-1.5 1.4-1.4 1.3-1.4 1.4-1.4 1.4-1.4 1.4-1.4 1.5-1.3 1.4-1.3 1.5-1.4 1.4-1.3 1.5-1.2 1.5-1.3 1.5-1.2 1.6-1.3 1.5-1.2 1.6-1.2 1.6-1.1 1.6-1.2 1.6-1.1 1.6-1.2 1.6-1 1.7-1.2 1.6-1 1.7-1M108.4-757l3-1.9 3-1.7 3-1.7 3-1.6 3-1.5 3.1-1.5 3-1.4 3.1-1.4 3-1.3 3.2-1.2 3-1.2 3.1-1.1 3.1-1 3.1-1.1 3.2-1 3-.8 3.2-.8 3.2-.8 3.1-.7 3.2-.7 3.2-.5 3.1-.6 3.2-.4 3.2-.4 3.2-.4 3.3-.2 3.2-.3 3.2-.1 3.3-.1h3.2M202.1-784.5H203.7M203.7-784.5H206.9M207-784.5h3.2l3.2.1 3.3.2 3.2.2 3.2.3 3.2.3 3.2.4 3.2.5 3.2.5 3.2.6 3.1.7 3.2.7 3.1.7 3.2.9 3.1.8 3.1 1 3.1 1 3.1 1 3.1 1.2 3.1 1.2 3 1.2 3.1 1.3 3 1.4 3.1 1.4 3 1.5 3.1 1.5 3 1.6 3 1.7 3 1.7 3 1.8M300.6-757l1.7 1 1.7 1 1.6 1.1 1.7 1.1 1.6 1.2 1.6 1 1.6 1.2 1.6 1.2 1.5 1.2 1.6 1.2 1.5 1.3 1.5 1.2 1.5 1.3 1.5 1.2 1.5 1.3 1.5 1.3 1.4 1.4 1.4 1.3 1.4 1.4 1.4 1.4 1.4 1.4 1.4 1.4 1.4 1.4 1.3 1.5 1.3 1.5 1.3 1.4 1.3 1.6 1.3 1.5 1.3 1.5 1.2 1.6M345.4-717h0v.1h.1v.1h.1v.1h0v.1h.1v.1h.1v.1M346.9-715l.6.8.7.8.7.9.7.8.6.8.7.9.7.8.6.8.7.8.7.8.6.7.7.8.6.8.7.7.6.8.7.7.6.8.6.7.7.7.6.8.7.7.6.7.6.7.7.6.6.7.6.7.6.7.7.6.6.7.6.6M366.3-692.6l.1.5.1.5.2.4v.5l.2.5.1.5.1.5.2.5v.5l.2.6.1.5.1.5.1.5.1.6.1.5.1.6.1.5.1.6.1.6.1.6.1.5v.6l.2.6v.6l.2.6v.6l.1.6.1.6v.7l.2.6M369.4-676.1v1l.1.2v.6l.1.2v.6l.1.2v.7l.1.1v.7l.1.2v.5M370-671.1l.4 4 .4 4 .4 3.9.3 4 .4 3.9.2 3.9.3 4 .2 3.8.2 4 .1 3.8.1 4v3.8l.1 3.9v11.6l-.1 3.8-.2 3.8-.1 3.8-.2 3.9-.3 3.8-.2 3.8-.3 3.7-.4 3.8-.3 3.8-.4 3.7-.4 3.8-.5 3.7-.5 3.8-.6 3.7M368.6-555.6l-.2 1.2-.2 1.3-.2 1.2-.2 1.2-.2 1.3-.2 1.2-.1 1.2-.2 1.3-.2 1.2-.2 1.2-.2 1.2-.2 1.2-.2 1.3-.2 1.2-.2 1.2-.2 1.2-.1 1.2-.2 1.2-.2 1.2-.2 1.3-.2 1.2-.1 1.2-.2 1.2-.2 1.2-.1 1.2-.2 1.2-.2 1.2-.2 1.2-.1 1.2-.2 1.1M363.1-519.2l-.2 1.3-.1 1.3-.2 1.3-.2 1.2-.2 1.3-.1 1.3-.2 1.2-.2 1.3-.1 1.3-.2 1.2-.1 1.3-.2 1.3-.2 1.2-.1 1.3-.2 1.2-.1 1.3-.2 1.2-.1 1.3-.2 1.2-.1 1.3-.2 1.2-.1 1.2-.2 1.3-.1 1.2-.1 1.2-.2 1.3-.1 1.2-.2 1.2-.1 1.3-.1 1.2M361.1-481h2.4l.3.1h.6l.2.1.3.1h.3l.3.1.2.1h.3l.3.2h.2l.3.1.3.1.2.1.3.1.2.1.3.2h.2l.3.2.2.1.3.2.2.1M369.6-478.9l.8.6.8.5.8.5.8.5.8.5.7.6.8.5.7.6.7.5.7.6.8.6.7.6.7.6.6.6.7.6.7.6.6.6.7.6.6.7.7.6.6.7.6.6.6.7.6.6.6.7.5.7.6.7.6.7.5.7.6.7M390.3-459.7v.2l.1.1.1.1v.2l.2.1V-458.7l.1.2v.1l.1.2v.1l.1.2v.2l.1.1V-457.3l.1.2v.5l.1.2V-454.8M391.3-454.3h0v.2h0v.2h0v.1h0v.2h0v.1h0v.2h-.1v.1h0v.1h0v.1h-.1v.1h0v.1h-.1v.1h0v.1h-.1M363.7-464.6l-.2-.1-.1-.1-.2-.1h-.1l-.2-.2-.1-.1-.2-.1-.1-.1-.1-.1-.2-.1-.1-.1-.1-.2h-.2l-.1-.2-.1-.1-.1-.2h-.2v-.2l-.2-.2h-.1l-.1-.2-.1-.2-.2-.1v-.2l-.2-.1v-.2l-.2-.1v-.2l-.2-.1v-.2M357.4-468.5l-.2 4.7-.1 4.7-.2 4.9v5l-.1 5V-417.5l.2 5.7.1 5.7.2 5.8.2 6 .3 6 .2 6 .3 6.2.3 6.3.4 6.4.4 6.5.4 6.6.5 6.7.4 6.8.5 6.8.6 7 .5 7 .6 7.2.7 7.3.6 7.3.7 7.5M364.9-286.7l.1 1.3.2 1.3v1.3l.2 1.3.1 1.4.2 1.3.1 1.3.1 1.4.2 1.3.1 1.4.1 1.3.2 1.4.1 1.3.1 1.4.2 1.3.1 1.4.2 1.3.1 1.4.1 1.4.2 1.3.1 1.4.2 1.4.1 1.4.1 1.3.2 1.4.1 1.4.2 1.4.1 1.4.2 1.4.1 1.4M369-246v.4l.1.4v.4l.2.3v.8l.2.4v.7l.2.3v.4l.1.3.1.4.1.3v.3l.2.4v.3l.2.3v.3l.2.3v.3l.2.3.1.3.1.3.1.3.1.3.2.3v.3l.2.2.1.3M371.8-236l.3.5.3.7.3.7.3.7.3.7.3.8.3.7.3.9.2.8.2.8.3 1 .2.8.2 1 .2 1 .2.9.2 1 .2 1 .1 1 .2 1.2.1 1 .1 1.2.2 1.2v1.2l.2 1.2v1.2l.1 1.2v1.3l.1 1.3v1.4l.1 1.3M377.3-206.3l.1 3 .1 3 .1 3.1.1 3 .1 3 .1 3v3.1l.1 3v3l.1 3v3l.1 3v32.9l-.1 2.9v3l-.2 2.9v3l-.1 3-.1 2.9v2.9M377.4-110.2h0v.1h0v.2h0v.1h0v.2h0v.1h0v.2h0v.1h0l-.1.1v.2h0v.2h0v.2h0v.1h0v.2h0v.1h0M359.9-287.3h-.2l-.2-.1h-.1l-.2-.1h-.2l-.1-.1h-.2l-.1-.1h-.2l-.2-.1h-.1l-.2-.1h-.1l-.2-.1h-.2l-.1-.2h-.4l-.1-.1-.2-.1h-.1l-.2-.2h-.2l-.1-.1h-.2l-.2-.1-.1-.1-.2-.1h-.1l-.2-.2M355-289.2l.2 5 .1 5 .2 5v4.8l.2 4.9v4.8l.1 4.7v4.7l.1 4.6v22.6l-.1 4.3v4.3l-.2 4.3v4.2l-.2 4.2-.2 4.1-.1 4.1-.2 4-.2 4-.2 4-.2 3.9-.3 3.8-.2 3.8-.3 3.8-.3 3.7-.3 3.7M352.9-159h0v.1h0v.1h0M352.8-158.8l-.3 2.6-.4 2.6-.4 2.5-.4 2.5-.4 2.5-.4 2.5-.4 2.4-.5 2.5-.4 2.4-.4 2.4-.5 2.3-.5 2.4-.4 2.3-.5 2.3-.5 2.3-.5 2.3-.5 2.3-.5 2.2-.6 2.2-.5 2.2-.5 2.2-.6 2.1-.5 2.2-.6 2-.6 2.2-.6 2-.6 2.1-.6 2-.6 2-.6 2M338-90.2l.9-.4.8-.4.9-.5.8-.4.8-.5.9-.4.8-.5.8-.5.8-.4.8-.5.7-.6.8-.5.8-.5.7-.5.7-.6.8-.5.7-.6.7-.6.7-.6.7-.6.7-.6.6-.6.7-.6.6-.7.7-.6.6-.7.6-.7.6-.7.6-.6.6-.7M360-106.8l.2-.4.3-.3.3-.2.2-.3.2-.2.3-.2.2-.2.2-.1.1-.2h.2l.2-.2h.2l.1-.1H363v.1l.1.1v1.5l-.1.3-.1.3-.1.4M362.8-106.5h0v.2h-.1v.1h0v.1h0l-.1.1v.1h0v.1h0l-.1.2h0v.2h-.1 0v.2h0v.1h-.1v.2h0l-.1.2h0v.1M361.8-104l-1.3 3.3-1.3 3.2-1.3 3-1.4 3-1.4 3-1.4 3-1.5 2.7-1.5 2.8-1.5 2.7-1.5 2.6-1.6 2.5-1.6 2.5-1.7 2.4-1.6 2.3-1.7 2.3-1.7 2.2-1.8 2-1.8 2.1-1.8 2-1.8 2-1.9 1.8-1.9 1.8-2 1.7-1.9 1.6-2 1.6-2 1.5-2 1.4-2 1.3-2.2 1.3-2.1 1.3M310.6-37.1h.1l.2-.1h.1l.2-.1h.1l.1-.1h.2l.1-.1h.2l.1-.1.1-.1h.2l.1-.1h.2l.1-.1h.1l.2-.1h.1l.2-.1h.1l.1-.1h.2l.1-.1h.2l.1-.1h.1l.2-.1h.1l.2-.1h.1M314.8-38.7h.1l.2-.1h.1l.1-.1h.1l.1-.1h.1l.2-.1h0l.2-.1h.1l.1-.1h.1l.1-.1h.2v-.1h.1M323.5-43.1l.4-.2.3-.3.3-.2.4-.2.3-.2.4-.3.3-.2.4-.3.3-.2.4-.3.3-.3.4-.3.4-.3.3-.3.4-.3.3-.3.4-.3.4-.3.3-.3.4-.4.4-.3.4-.4.3-.3.4-.4.4-.4.4-.4.4-.3.3-.4.4-.4.4-.4M334.4-52.3l.3-.3.4-.3.3-.3.3-.2.3-.3.3-.2.3-.2.3-.3.3-.2.3-.2.3-.2.3-.2.3-.2.3-.2.3-.2.3-.1.3-.2.2-.1.3-.2.3-.1.3-.1.2-.2h.3l.2-.2h.3l.2-.2h.3l.2-.1h.3l.2-.1M338-90.2h0v.2h0l-.1.1h0v.2h0l-.1.1h0v.2h0v.1h-.1v.2h0v.1h-.1v.2h0l-.1.1h0v.2h0M337.4-88.4l-.1.4-.2.4v.5l-.2.4-.2.4-.1.5-.2.4-.1.4-.1.4-.2.5-.1.4-.2.4-.1.4-.2.4-.1.5-.1.4-.2.4-.1.4-.2.4-.1.4-.2.4-.1.5-.2.4-.1.4-.2.4-.1.4-.2.4-.1.4-.2.4M333-75.9l-.4 1.1-.5 1.1-.6 1.1-.5 1.1-.6 1.1-.6 1-.6 1.2-.6 1-.7 1-.6 1-.7 1.1-.7 1-.7 1-.8 1-.8 1-.7 1-.9 1-.8 1-.8.9-.9.9-.9 1-.9.8-.9 1-1 .8-.9 1-1 .8-1 .9-1 .8-1 .9-1.1.8M309.8-46.5l-1.7 1-1.6 1.1-1.7 1-1.8 1-1.7 1-1.8 1-1.8 1-1.8 1-1.8.9-1.9.9-1.8.9-2 .9-1.9.8-2 .9-1.9.8-2 .9-2 .8-2 .8-2 .8-2.2.7-2 .8-2.2.7-2.1.8-2.2.7-2.2.7-2.2.7-2.2.6-2.3.7-2.3.6-2.3.6M250.4-21.4h.8l.3-.1h.2l.3-.1h.5l.3-.1h.2l.3-.1h.3l.2-.1h.5l.3-.1h.3l.2-.1h.3l.2-.1h.5l.3-.1h.3l.2-.1h.3l.2-.1h.3l.2-.1h.3M258.2-22.7l1.6-.3 1.7-.3 1.6-.3 1.6-.3 1.6-.4 1.7-.3 1.6-.4 1.6-.4 1.6-.3 1.7-.4 1.6-.4 1.6-.4 1.6-.4 1.7-.5 1.6-.4 1.6-.4 1.6-.5 1.6-.4 1.7-.5 1.6-.5 1.6-.5 1.6-.5 1.7-.5 1.6-.5 1.6-.5 1.6-.6 1.6-.5 1.7-.5 1.6-.6 1.6-.6M309.6-36.7h0l.1-.1h.2v-.1H310.3v-.1h.2v-.1h.1M310.6-37.1h0-.1 0M347.1-60.3l.3-.5.4-.5.3-.5.4-.6.3-.5.4-.5.3-.6.4-.5.3-.6.4-.6.4-.5.3-.6.4-.6.4-.7.3-.6.4-.6.4-.7.4-.6.4-.7.3-.6.4-.7.4-.7.4-.7.4-.7.4-.7.4-.7.4-.8.4-.7.4-.8.4-.7M358.3-79.1l.7-1.5.7-1.4.6-1.4.7-1.4.7-1.4.7-1.4.6-1.4.7-1.3.6-1.4.7-1.3.7-1.3.6-1.3.7-1.3.6-1.3.7-1.2.6-1.3.6-1.2.7-1.2.6-1.2.6-1.2.7-1.2.6-1.1.6-1.2.6-1.1.7-1.1.6-1.1.6-1.1.6-1 .6-1.2M284.7-94.1l.6-1.5.5-1.6.6-1.5.6-1.6.5-1.6.6-1.6.5-1.7.5-1.7.6-1.7.5-1.7.5-1.8.5-1.8.5-1.8.5-1.8.5-1.9.5-1.9.4-1.9.5-2 .5-1.9.4-2 .5-2 .4-2 .4-2.1.5-2.1.4-2.1.4-2.2.4-2.1.4-2.2.4-2.2.4-2.3M299.1-150.4l.8-4.4.8-4.4.7-4.4.7-4.5.7-4.5.7-4.5.6-4.5.7-4.6.6-4.5.5-4.6.6-4.7.6-4.6.5-4.7.5-4.7.5-4.7.4-4.8.4-4.7.5-4.8.4-4.8.3-4.9.4-4.8.3-4.9.3-4.9.3-5 .3-4.9.2-5 .2-5 .2-5 .2-5M313.2-292.3h-.4l-.4.2-.3.1-.4.1-.4.1-.3.1-.4.1-.4.1h-.3l-.4.2h-.4l-.4.2h-.3l-.4.2h-.4l-.3.1-.4.1-.4.1-.3.1h-.4l-.4.2h-.3l-.4.1-.4.1h-.4l-.3.2h-.4l-.4.1-.3.1h-.4M302.1-227.4V-223.5l-.1.8v2.3l-.1.7v2.3l-.1.8v1.5l-.1.7v1.5l-.1.7v1.5l-.1.7v.7l-.1.8v1.4l-.1.7v.7l-.1.8M301.2-205v.1h0v.2h0v.2h0v.2h0v.2h0v.2h0v.2h0v.2h0v.2h0v.2h0v.1M301.1-203h0v.1h0v.1h0v.1h0v.1h0v.1h0v.1h0v.1h0v.1h0v.1h0v.1h0v.1h0v.1h-.1v.1h0v.1h0v.1M301-201v.5l-.1.2v1l-.1.2V-198l-.1.2v.9l-.1.2v1l-.1.2v.1M300.5-195.4l-.3 2.7-.2 2.6-.3 2.6-.3 2.6-.3 2.6-.3 2.6-.3 2.5-.3 2.6-.4 2.6-.3 2.6-.4 2.5-.4 2.6-.4 2.5-.4 2.6-.5 2.5-.4 2.5-.4 2.6-.5 2.5-.5 2.5-.5 2.5-.5 2.5-.5 2.5-.5 2.5-.6 2.5-.5 2.4-.6 2.5-.6 2.5-.6 2.4-.6 2.5-.6 2.4M280.2-92.8h0v.1h0v.1h0v.1h0-.1 0v.1h0M280-92.4h0v.1h0M280-92.2h.5l.2-.1h.5l.1-.1h.2l.1-.1h.2l.2-.1h.1l.2-.1h.1l.2-.1.1-.1h.2l.1-.2h.2l.1-.1.2-.1.1-.1.2-.1.1-.1.2-.1.1-.1.2-.1.1-.1.2-.1M341.5-466.5v16.4l-.1 5.5v16.3l-.1 5.5v10.8l-.1 5.5v5.4l-.1 5.4v5.4l-.1 5.4v5.4l-.1 5.4v5.3l-.2 5.4v10.7l-.2 5.4v5.3l-.1 5.4v5.3l-.2 5.3v5.4l-.1 5.3-.1 5.3-.1 5.3M339.8-300h0v.1h0v.1h0v.1h0v.1h0v.1h0v.1h0v.1h0M337-464.3v32.3l-.1 5.4v5.4l-.1 5.3v10.7l-.1 5.3v5.4l-.1 5.3v5.3l-.1 5.4v5.3l-.1 5.3-.1 5.3v5.3l-.1 5.3-.1 5.2v5.3l-.2 5.3v5.3l-.1 5.2-.1 5.3v5.2l-.2 5.3M335.4-302.7h0v.1h0v.1h0v.2h0v.1h0v.2h0v.2h0v.2h0v.2h0v.2h0v.2h0v.2h0v.2h0v.1h0M332.8-462.2v-7.6M82-721l-.6.5-.5.6-.5.5-.5.5-.5.5-.5.5-.5.5-.5.6-.4.5-.5.5-.4.5-.5.5-.4.5-.5.6-.4.5-.4.5-.4.5-.4.5-.4.5-.4.5-.4.6-.4.5-.4.5-.3.5-.4.5-.4.5-.3.6-.4.5-.3.5-.3.5M68.2-704v.2l-.1.1v.2h-.2V-703.1l-.2.2h0l-.1.2v.1l-.1.1-.1.2v.1l-.1.1v.1l-.2.2h0v.2l-.1.1-.1.2h0l-.1.2v.1l-.1.2h-.1v.2l-.1.1v.2h-.1l-.1.2M66-699.3l.5.6.6.5.6.5.7.4.6.4.7.3.7.3.8.2.7.2.8.1.9.1h2.6l1-.1.9-.2 1-.2 1-.2 1-.3 1-.3 1-.4 1.2-.4 1.1-.5 1.2-.5 1.2-.6 1.2-.6 1.2-.7 1.3-.7 1.2-.8 1.4-.8M315-703l.5.6.5.6.5.5.4.6.5.6.5.5.5.6.5.5.5.5.5.6.5.5.5.5.4.5.5.5.5.5.5.5.5.4.5.5.5.5.5.4.5.5.5.4.5.5.5.4.5.4.5.4.5.4.5.4.5.4.5.4M329.8-688.4l.7.5.6.5.7.5.6.4.7.4.6.4.6.4.6.4.6.3.6.3.6.3.5.2.6.3.5.2.5.1.5.2.5.1.5.2h.5l.4.1h2.1l.4-.1.4-.1.4-.1.3-.2M345.2-683.4l.3-.2.3-.2.3-.2.2-.3.3-.3.2-.3.2-.3.2-.3.1-.4.2-.4v-.4l.2-.4v-.4l.2-.5v-3.7l-.1-.7-.1-.6-.1-.6-.2-.7-.1-.7-.2-.7-.2-.8-.2-.7-.2-.8M346-699.6h0l-.1-.2v-.2l-.1-.1v-.2h0l-.1-.2h0v-.2l-.1-.1v-.2l-.1-.2h0l-.1-.2h0v-.2l-.1-.1v-.1l-.1-.1v-.2h-.1v-.2h-.1V-702.7l-.1-.1v-.1l-.1-.1M344.8-703h0v-.1h0-.1 0v-.1h0v-.1h0v-.1h0M341-710.7l-.6-.9-.5-.8-.6-.9-.6-.8-.6-.9-.6-.8-.6-.9-.7-.8-.6-.9-.7-.8-.8-.9-.7-.9-.7-.8-.8-.9-.8-.8-.8-.9-.9-.8-.8-.9-.9-.9-.9-.8-.9-.9-1-.8-.9-.9-1-.9-1-.8-1-.9-1-.9-1-.8-1-.9-1.1-.8M316.9-736.5h-.2l-.1-.2-.2-.1v-.1l-.2-.2h-.2l-.1-.2-.1-.1-.2-.1-.1-.1-.2-.1v-.2h-.2l-.2-.2h0l-.2-.2-.2-.1v-.1l-.2-.1-.2-.1v-.1l-.2-.1-.2-.1v-.1l-.2-.1-.1-.1-.2-.1-.1-.1-.1-.1-.2-.1M312.8-739.7l-.6-.5-.7-.5-.6-.4-.6-.4-.6-.4-.6-.4-.6-.4-.6-.3-.6-.3-.5-.3-.6-.2-.5-.2-.6-.2-.5-.2-.5-.2-.5-.1-.5-.1-.5-.1h-.4l-.5-.1H300l-.4.1-.4.1-.4.2-.4.1-.4.2-.3.2M297.7-744.1h0-.1v.1h0l-.1.1h0v.1h-.1 0v.1h0-.1v.1h0v.1h-.1 0v.1h0l-.1.1h0v.1h-.1v.1h0v.1"/><path d="M297-743h0-.1v.1h0v.1h0v.1h-.1 0v.1h0v.1h0v.1h0l-.1.1h0v.1h0v.1M296.6-742v.6l-.1.4v2.2l.1.5v.5l.2.6v.5l.2.6.1.6.2.6.1.7.2.6.2.7.2.7.3.7.2.7.3.8.3.8.2.8.4.8.3.8.3.8.4 1 .3.8.4.9M304.9-717.3l.1.3.1.2.2.2.1.2.2.3.1.2.2.2.1.3.2.2.1.2.1.2.2.3.1.2.2.2.2.3.1.2.2.2.1.3.2.2.1.2.2.2.1.3.2.2.2.2.1.3.2.2.2.3.1.2.2.2M360.4-306h0-.1 0-.2v-.1h0-.2 0-.1 0-.1 0-.1 0l-.1.1h0-.1v.1h0l-.1.1h0v.2h0l-.1.1v.1h0v.2M359.2-305.2h0v.1h0v.1h0v.1h0v.1h0v.1h0M359.3-304.6v.1h0v.2h0v.2h0v.2h0V-303.5h0v.2h0v.2h0v.2h0l.1.1v.1h0v.2h0V-302.2h0v.2"/><path d="M359.4-302.1h0v.1h0v.1h0v.1h0v.1h.1v.1h0v.1h0v.1h0v.1M362.9-297v-.5l-.1-.3V-298.7l-.1-.3v-.8l-.1-.3V-301l-.1-.2V-302.1l-.1-.3v-.8l-.1-.3V-304.6l-.1-.3v-.6M359.9-287.3l-.4-3.3-.3-3.3-.3-3.3-.2-3.3-.3-3.3-.3-3.3-.3-3.3-.2-3.4-.3-3.3-.3-3.4-.2-3.4-.3-3.3-.2-3.4-.2-3.4-.2-3.4-.3-3.5-.2-3.4-.2-3.4-.2-3.5-.2-3.4-.2-3.5-.2-3.5-.2-3.5-.1-3.5-.2-3.5-.2-3.5-.1-3.5-.2-3.6-.1-3.5-.2-3.6M353.1-389.8l-.1 1-.1 1.1-.2 1.1v1.1l-.2 1.1-.1 1.1-.1 1.2v1l-.2 1.2v1.2l-.1 1.2-.1 1.2v1.2l-.1 1.2v1.2l-.1 1.3v1.3l-.1 1.2v14.9M351.7-352.6l.1 2.2.2 2.2.1 2.2.2 2.2.1 2.2.1 2.2.2 2.2.1 2.2.1 2.1.2 2.2v2.1l.2 2.2.1 2 .1 2.2.1 2.1.1 2.1.2 2.1v2.1l.2 2.1v2.1l.2 2v2.2l.1 2 .1 2 .1 2.1v2l.2 2v2.1l.1 2v2M325.8-254v.2l-.2.2v.2l-.2.2-.1.1-.1.2-.1.2-.1.1-.2.2v.1l-.2.2h0l-.2.2-.1.1-.1.1-.2.1v.1l-.2.1-.1.1h-.1l-.2.2h-.2l-.2.1h0-.2l-.1.1h-1.1 0l-.2-.1h-.1l-.1-.1h-.2v-.2h-.2l-.1-.1-.1-.1-.1-.1-.1-.1-.1-.1-.1-.1-.1-.2h-.1l-.1-.2-.1-.2-.1-.1-.1-.2-.1-.1-.1-.2-.1-.2v-.2l-.2-.1v-.2l-.2-.2M319-254l-.1-.3-.1-.2-.1-.2v-.2l-.2-.2v-.5l-.2-.2v-.5l-.1-.3v-.2l-.1-.3v-.2l-.1-.3v-.5l-.1-.3v-1l-.1-.3v-2.1M317.8-261.8V-263.2l.1-.3v-.6l.1-.2v-.6l.1-.3v-.2l.1-.3v-.2l.1-.3v-.3l.1-.2.1-.2v-.3l.1-.2.1-.3v-.2l.2-.2v-.3l.1-.2.1-.2.1-.2.1-.3.1-.2M319.4-269.5l.1-.2.1-.2.1-.2.1-.2.1-.1.2-.2v-.2l.2-.1v-.2l.2-.1.1-.2h.1l.2-.2v-.1l.2-.1.1-.1.1-.1.2-.1v-.1h.2l.1-.1.2-.1h.2l.1-.1H322.6l.1-.1h.9l.1.1h.2l.2.1.1.1h.1l.1.2h.2v.1l.2.1v.1l.2.1.1.1.1.2h.1l.1.2.1.2.1.1.1.2.1.1.1.2.1.2v.2l.2.1v.2l.2.2M326.4-269.5v.2l.1.3.1.2v.2l.1.2.1.3v.2l.1.2v.3l.1.2.1.3v.5l.1.2v.3l.1.2v.8l.1.3v2.8M327.4-261.8v2.1l-.1.3v.5l-.1.3v.2l-.1.3v.3l-.1.2v.3l-.1.2v.3l-.2.2v.5l-.2.3v.2l-.1.2-.1.2-.1.3v.2l-.2.2v.2l-.2.3M328.1-250l-.1.2-.1.2-.2.2v.2l-.2.2-.2.2v.2l-.2.2-.2.1-.1.2-.1.1-.2.2h-.1l-.2.2-.1.1-.2.1-.1.1-.2.1-.1.1h-.2l-.1.2H324.9l-.2.1h-.1l-.2.1H323l-.2-.1h-.2l-.1-.1-.2-.1-.1-.1h-.2l-.2-.2-.1-.1-.2-.1-.1-.2-.2-.1-.1-.2-.1-.1-.2-.2-.1-.2-.2-.2-.1-.2-.1-.2-.2-.2-.1-.2-.1-.2-.2-.3v-.2l-.2-.3-.1-.3-.2-.3"/><path d="M319.1-251v-.4l-.2-.3-.1-.3-.1-.3-.1-.3-.1-.3-.1-.3-.1-.4v-.3l-.2-.3v-.4l-.1-.3v-.4l-.1-.3-.1-.4v-.3l-.1-.4v-.7l-.1-.4v-1.1l-.1-.4v-2.5M317.5-261.8v-1.6l.1-.4v-.4l.1-.4v-.4l.1-.4v-.3l.1-.4v-.4l.2-.4v-.3l.1-.4v-.3l.2-.4v-.3l.2-.4v-.3l.2-.3v-.4l.2-.3v-.3l.2-.3.1-.3.1-.4.2-.3.1-.3.2-.3M319.9-272.5v-.3l.2-.2.2-.3.1-.3.2-.2.1-.3.2-.2.1-.2.2-.2.1-.2.2-.2.1-.2.2-.2.2-.1.1-.2.2-.1.2-.2h.1l.2-.2h.2l.1-.2h.2l.2-.1.2-.1h.1l.2-.1h1.8l.2.1.1.1h.2l.2.2h.1l.2.2h.1l.2.2.1.2h.2l.1.2.2.2.1.2.2.2.1.1.1.2.2.3.1.2.2.2v.2l.2.3.1.2.2.3v.3l.2.2M329.4-272.5v.2l.1.1v.1l.1.2h0v.2h.1v.2h.1V-271.1l.1.1v.2l.1.1V-270.5h.1v.2h0v.2l.1.1v.2l.1.2h0V-269.2l.1.1M95.2-437.1L95-433l-.1 4.3-.2 4.4-.1 4.3-.2 4.4-.1 4.5-.1 4.4-.1 4.5-.1 4.5-.1 4.6-.1 4.6v4.6l-.1 4.7v9.4l-.1 4.8V-340.7l.1 5v5l.1 5 .1 5 .1 5.1.1 5.1.1 5.2.1 5.2.2 5.2M42.4-464.6h.1l.1-.2h.2v-.1l.2-.1v-.1l.2-.1v-.1l.2-.1v-.1l.1-.2h.1v-.2l.1-.1.1-.1v-.2l.1-.1v-.2l.1-.1v-.2l.1-.1V-467.3l.1-.2V-468.4M44.3-470.1v-1.2l.1-.2v-.3l.2-.2v-.2l.1-.2.1-.2.1-.2.1-.2.2-.1.1-.2.2-.2.1-.1.2-.2.2-.1.1-.2.2-.1.2-.2h.2l.3-.2.2-.1.2-.1.3-.1.3-.1.2-.1.3-.1M190.5-696.5l-2.5.3-2.4.4-2.4.4-2.3.4-2.3.5-2.2.4-2.2.5-2 .5-2.1.5-2 .5-2 .6-1.9.6-1.8.5-1.8.6-1.7.6-1.7.7-1.6.6-1.5.7-1.5.7-1.5.7-1.4.7-1.3.7-1.3.8-1.2.7-1.2.8-1 .8-1.1.8-1 .9-1 .8M136.5-674.3l-.8 1-.9 1.1-.8 1.1-.8 1.2-.8 1.1-.8 1.2-.8 1.2-.8 1.3-.7 1.3-.8 1.3-.8 1.4-.8 1.4-.8 1.4-.7 1.4-.8 1.5-.7 1.6-.8 1.5-.8 1.6-.7 1.6-.8 1.7-.7 1.7-.7 1.7-.8 1.7-.7 1.8-.7 1.9-.7 1.8-.8 1.9-.7 2-.7 1.9-.7 2M113.6-629l-.8 2-.8 2.2-.8 2-.7 2.2-.8 2-.7 2.2-.8 2-.7 2-.7 2.1-.7 2-.7 2.1-.6 2-.7 2-.6 2-.7 2-.6 2-.6 2-.6 2-.6 2-.6 2-.5 1.9-.6 2-.5 1.9-.5 1.9-.6 2-.5 1.8-.5 2-.4 1.8-.5 1.9-.5 1.9M94-565.1l-.1.3v.5l-.1.3v.3l-.1.3v.5l-.1.3v.6l-.1.3v.5l-.1.3v1.1l-.1.3V-556.8"/><path d="M93.2-556.8l.2-1.3.1-1.4.3-1.4.2-1.4.3-1.4.4-1.5.3-1.5.4-1.5.5-1.6.5-1.5.5-1.7.6-1.6.6-1.7.7-1.7.6-1.8.8-1.7.7-1.8.8-1.9.9-1.8.9-2 .9-1.9 1-2 1-2 1-2 1-2 1.2-2 1.1-2.2 1.2-2.1 1.3-2.2 1.2-2.2M114.4-609.6V-613.7l.1-.6V-615.6l.1-.7v-.7l.1-.6.1-.7v-.6l.1-.7.1-.6.1-.7.1-.6.1-.6.1-.7.1-.6.2-.6.1-.7.1-.6.2-.6.1-.6.2-.7.1-.6.2-.6.2-.6M116.9-629v-.1h0v-.2h0l.1-.2h0v-.2h0l.1-.1V-630.1l.1-.1h0v-.2h.1v-.2h0v-.1l.1-.1v-.2h0l.1-.2h0v-.2l.1-.1v-.2M117.7-631.7V-632h.1v-.2l.1-.1v-.2l.1-.1v-.1l.1-.2h0l.1-.2v-.2h.1v-.2l.1-.1v-.2h.1v-.2l.1-.1v-.2l.1-.1v-.1l.1-.2h0l.1-.2v-.1l.1-.2h0l.1-.2v-.1M119.2-635.5l.6-1.6.6-1.6.6-1.5.6-1.5.7-1.5.6-1.5.6-1.4.6-1.4.7-1.4.6-1.4.7-1.3.6-1.3.7-1.3.6-1.3.7-1.2.6-1.2.7-1.2.6-1.2.7-1.1.7-1.2.6-1 .7-1.1.7-1 .6-1 .7-1 .7-1 .7-1 .7-1 .7-.8.7-1M141.8-675.9l.8-.7.9-.8.9-.8.9-.7 1-.8 1-.7 1-.7 1-.7 1.1-.6 1.2-.7 1.2-.6 1.2-.6 1.2-.7 1.3-.6 1.3-.5 1.4-.6 1.3-.6 1.5-.5 1.4-.5 1.5-.5 1.5-.5 1.6-.5 1.6-.5 1.6-.4 1.7-.5 1.7-.4 1.8-.4 1.7-.4 1.9-.4M181.8-693.1h.4l.5-.1h1.8l.3.1.3.1.3.1.2.2.3.1.2.2.2.2.2.2.2.2.1.3.2.2.1.3.1.3.1.4v.3l.1.4v2.6M184.2-653.8l-.2.9-.1.8-.2.8-.2.8-.2.7-.3.8-.3.7-.2.7-.3.7-.4.6-.3.7-.4.6-.4.6-.4.5-.4.6-.4.5-.5.5-.4.5-.5.5-.6.4-.5.4-.5.5-.6.3-.6.4-.6.3-.6.4-.7.3-.7.2-.6.3M171.3-637.6l-3.2 1-3 1-3 1-3 1-2.9 1-2.7 1-2.7 1-2.6 1-2.4 1-2.4 1-2.3.9-2.2 1-2.2.9-2 1-2 .9-1.8.9-1.8.9-1.6 1-1.6.8-1.5 1-1.4.8-1.3 1-1.2.8-1.2 1-1 .8-1 .9-.8.8-.8.9-.7.9M297-743h.2l.3.2h.3l.3.2h.3l.3.2.3.1.4.1.3.2.3.1.3.1.3.2.4.2.3.1.3.2.3.2.4.1.3.2.3.2.4.2.3.2.4.2.3.3.4.2.3.2.4.3.4.2.3.3.4.2.3.3M311.6-734.2l.5.5.6.4.6.4.6.5.6.4.5.5.6.4.5.4.6.5.5.4.6.5.5.4.5.4.5.5.6.4.5.5.5.4.5.5.5.4.5.4.5.5.5.4.4.5.5.4.5.4.5.5.4.4.5.5.4.4.5.4M327-721l.6.5.5.6.5.5.5.5.5.5.5.5.5.5.5.6.5.5.4.5.5.5.4.5.5.5.4.6.4.5.5.5.4.5.4.5.4.5.4.5.4.6.4.5.3.5.4.5.4.5.3.5.4.6.3.5.4.5.3.5M339.9-705.5h0v.1h.1v.1h0v.1h0M340.8-704v.2l.1.1v.2h.2v.2l.1.1v.2h.1l.1.2v.1l.1.1.1.2v.1l.1.1.1.1v.2h.1l.1.2v.1l.1.2h.1v.2l.1.1v.2h.1l.1.2v.1l.1.2h0l.1.2"/><path d="M342.7-700.2h0v.1h.1v.1h0v.1h0l.1.1h0v.1h0v.1h.1v.1h0v.1h.1v.1M328.5-299.7l.3-.1.2-.1.2-.1.2-.1h.3l.2-.2h.2l.3-.2h.2l.2-.2h.2l.3-.2h.2l.2-.2h.3l.2-.2h.2l.2-.2h.3l.2-.2h.2l.3-.1.2-.1.2-.1.3-.1.2-.1.2-.1.2-.2h.3l.2-.2M76.3-462.2v-7.6M313.9-437.1l.1 4.2.2 4.3.2 4.4.1 4.3.2 4.4v4.5l.2 4.4.1 4.5.1 4.5.1 4.6v4.6l.1 4.6v4.7l.1 4.7v38.7l-.1 5v5l-.2 5v5.1l-.2 5.1v5.2l-.2 5.2M314.6-295h.4l.5-.2.4-.1.5-.2.5-.1.4-.2.5-.1.5-.2.4-.1.5-.2.5-.1.4-.2.5-.1.5-.2.4-.1.5-.2.5-.2.4-.1.5-.2.5-.2.4-.1.5-.2.5-.2.4-.1.5-.2.5-.2.4-.2.5-.2.5-.1.4-.2M328.6-301.8v-5.2l.1-5.1.1-5.2.1-5.2v-5.2l.2-5.2v-5.2l.1-5.3v-5.2l.1-5.2.1-5.2v-5.3l.1-5.2v-5.3l.1-5.2v-5.3l.1-5.2v-5.3l.1-5.3v-5.3l.1-5.2v-10.6l.1-5.3v-21.3l.1-5.3v-5.3M360.6-475.2h.2l.3.2h.3l.2.2h.3l.2.2.2.1.3.1.2.2.1.1.2.1.2.2.2.2.1.1.2.2.1.2.1.1.2.2v.2l.2.2v.2l.1.2v.2l.2.2v1l.1.2M364.8-468.6v1.3l.1.1V-466.9l.1.2v.1l.1.2v.1l.1.2h.1v.2l.1.1.1.2h.1v.2h.2v.2h.2v.2h.2l.1.2h.1l.1.1.2.1M318.3-445.4v.1l-.1.1-.1.1h0l-.1.2h0l-.2.2h0v.1l-.1.1-.1.1v.1h-.1v.2h-.1l-.1.1v.1l-.1.1-.1.1h0l-.1.2h0l-.2.1v.2l-.1.1h-.1v.2h-.1l-.1.1M216-74.8l.4-3 .3-3 .3-3.1.3-3 .3-3.1.3-3 .3-3.2.3-3 .2-3.2.3-3 .3-3.2.2-3.1.2-3.2.3-3.1.2-3.2.2-3.2.2-3.2.2-3.2.2-3.2.2-3.2.2-3.2.2-3.3.1-3.2.2-3.3.1-3.3.2-3.2.1-3.3.2-3.3v-3.4M45.3-286.7h.8v-.1H47l.1-.1h.5l.1-.1h.4l.2-.1h.2l.2-.1h.2l.2-.1M76.3-299.3l.7.3.6.3.7.2.7.3.6.3.7.2.6.3.7.3.6.2.7.3.6.2.7.2.6.3.7.2.6.3.7.2.6.2.7.2.6.3.7.2.6.2.7.2.6.2.7.2.6.2.7.2.6.2.7.2.6.2.7.2M95.9-292.3l.1 5 .2 5.1.2 5 .2 5 .3 5 .2 5 .3 4.9.3 4.9.4 4.9.3 4.8.4 4.9.4 4.8.4 4.8.5 4.7.4 4.8.5 4.7.5 4.7.5 4.7.6 4.6.5 4.6.6 4.7.6 4.5.6 4.6.7 4.5.7 4.5.6 4.5.8 4.5.7 4.4.7 4.4M110-150.4l.3 2.3.4 2.2.4 2.2.4 2.1.4 2.2.4 2.1.4 2.1.5 2 .4 2.1.5 2 .4 2 .5 2 .4 2 .5 1.8.5 2 .5 1.8.5 1.8.5 1.8.5 1.8.5 1.8.5 1.7.5 1.7.6 1.7.5 1.7.5 1.6.6 1.6.5 1.6.6 1.5.6 1.6.6 1.5M49.8-305.2h0v.1h0v.1h0v.1h0v.1h0v.1h0v.1M49.8-304.6v.1h0v.2h0v.2h0v.2h0V-303.5h0v.2h0v.1l-.1.1h0v.2h0v.2h0v.2h0V-302.2h0M49.6-302.1h0v.1h0v.1h0v.1h0v.1h0v.1h0v.1h0v.1h0v.1M49.5-301.3h0v.2h0v.2h0l-.1.2h0v.1h0l-.1.2h0v.1h-.1v.2H49v.2H49v.1h-.1v.2h-.1v.1h-.1v.1h-.1v.1M46.2-297V-298.3l.1-.3v-.8l.1-.3V-300.7l.1-.3v-.8l.1-.3v-.6l.1-.2V-303.8l.1-.3v-.8l.1-.3v-.3M48.6-306H49v-.1h.6v.1h.1v.1h.1v.1h0v.1l.1.1h0v.2h0v.2M319.5-519.4l.4.6.5.7.4.6.4.7.3.7.3.7.4.7.2.7.3.8.2.7.2.8.2.8.2.9.1.8.1.9.1.9v.9l.1.9v3.9l-.2 1v1l-.2 1-.2 1-.2 1.2-.2 1-.2 1.2-.3 1.1M322.4-493.2l-.4 1.1-.5 1.1-.4 1.1-.5 1.1-.4 1.1-.5 1-.4 1.1-.5 1-.4 1.1-.5 1-.4 1-.5 1-.5 1-.4 1-.5 1-.5 1-.4 1-.5.9-.5 1-.4.8-.5 1-.5.9-.4.8-.5 1-.5.8-.5.9-.5.8-.4.9-.5.8M307.4-462.2l-.3.4-.3.5-.4.5-.3.4-.4.4-.4.4-.3.4-.4.4-.4.3-.4.4-.4.3-.5.3-.4.3-.4.3-.5.3-.4.2-.5.3-.5.2-.4.2-.5.2-.5.2-.5.1-.5.2-.6.1-.5.1-.5.1-.6.1-.5.1h-.6l-.6.1M293.8-454.4l-3-.1-2.8-.1-2.9-.2h-2.9l-2.9-.2h-2.9l-2.9-.2h-2.9l-2.9-.2h-2.9l-2.8-.1-3-.1-2.8-.1h-3l-2.8-.1-3-.1h-2.8l-3-.1h-2.8l-2.9-.1h-5.8l-2.9-.1h-8.7l-2.9-.1H207M202.1-456.3h-20.3l-2.8.1h-3l-2.8.1h-3l-2.8.1h-3l-2.8.1h-2.9l-2.9.1-2.9.1H150l-2.9.2h-2.9l-2.9.1-2.9.1-2.8.1-3 .1-2.8.1-3 .1-2.8.2h-3l-2.8.2-2.9.1M115.2-454.4h-.6l-.6-.1h-.5l-.6-.2h-.5l-.5-.2-.6-.1-.5-.2-.5-.1-.5-.2-.5-.2-.4-.2-.5-.2-.5-.3-.4-.2-.5-.3-.4-.3-.5-.3-.4-.3-.4-.3-.4-.4-.4-.3-.4-.4-.4-.4-.3-.4-.4-.4-.4-.4-.3-.5-.3-.5-.4-.4M100.6-464l-.5-.9-.5-.8-.5-.9-.4-.8-.5-.9-.5-.8-.5-1-.4-.8-.5-1-.5-.8-.4-1-.5-.9-.4-1-.5-.9-.5-1-.4-1-.5-1-.4-1-.5-1-.4-1-.5-1-.4-1-.5-1-.4-1.1-.5-1-.4-1.2-.4-1-.5-1.2-.4-1-.4-1.2M86.9-493.2h0v-.1h0M86.8-493.4l-.2-1-.3-1.2-.2-1-.2-1.2-.1-1-.2-1v-1l-.1-1-.1-1v-4.8l.2-.8v-.9l.2-.8.2-.8.2-.8.2-.8.2-.8.3-.7.2-.8.3-.7.4-.7.3-.6.4-.7.4-.6.4-.7M89.8-519.4l1.2-1.5 1.2-1.5 1.2-1.4 1.3-1.5 1.3-1.5 1.4-1.4 1.4-1.5 1.4-1.4 1.4-1.4 1.5-1.4 1.5-1.4 1.6-1.4 1.6-1.4 1.6-1.4 1.7-1.4 1.7-1.3 1.7-1.4 1.8-1.3 1.8-1.3 1.8-1.4 2-1.3 1.8-1.3 2-1.3 2-1.3 2-1.2 2-1.3 2.1-1.3 2.1-1.2 2.2-1.2M140.3-560.3l1.9-1 2-1.1 1.9-1 2-1 1.9-1 2-1 2-.8 2-.9 2-.8 2.1-.8 2-.8 2.2-.7 2-.7 2.2-.7 2.1-.6 2.2-.6 2.2-.6 2.1-.5 2.2-.5 2.3-.5 2.2-.4 2.2-.4 2.3-.4 2.3-.3 2.3-.3 2.3-.3 2.3-.2 2.4-.2 2.3-.2M204.6-578.8l2.4.2 2.4.1 2.3.3 2.4.2 2.3.3 2.3.3 2.3.3 2.2.4 2.3.4 2.2.4 2.2.5 2.2.5 2.2.5 2.2.6 2.2.6 2 .6 2.2.7 2.1.7 2.1.7 2 .8 2.1.8 2 .8 2.1.9 2 .9 2 .9 2 1 2 1 1.9 1 1.9 1M269-560.3l2.2 1.3 2.2 1.2 2 1.2 2.2 1.3 2 1.3 2 1.2 2 1.3 2 1.3 1.9 1.3 1.8 1.3 1.9 1.4 1.8 1.3 1.8 1.3 1.7 1.4 1.7 1.3 1.7 1.4 1.6 1.4 1.6 1.4 1.5 1.4 1.6 1.4 1.5 1.4 1.4 1.4 1.4 1.4 1.4 1.5 1.4 1.4 1.3 1.5 1.3 1.5 1.2 1.4 1.2 1.5M114.9-741.9v.4l-.1.4v.5l-.1.4v.5l-.2.5v.4l-.2.5v.6l-.2.5-.1.5-.2.6-.1.5-.2.6-.2.6-.1.6-.2.7-.2.6-.3.6-.2.7-.2.7-.3.7-.2.7-.3.7-.3.7-.3.7-.3.8-.3.8-.3.7-.3.8M94.5-295H94l-.5-.2-.4-.1-.5-.2-.4-.1-.5-.2-.5-.1-.4-.2-.5-.1-.4-.2-.5-.1-.5-.2-.4-.1-.5-.2-.5-.1-.4-.2-.5-.2-.5-.1-.4-.2-.5-.2-.5-.1-.4-.2-.5-.2-.5-.1-.4-.2-.5-.2-.5-.2-.4-.2-.5-.1-.5-.2M108-202.6h0v-.1h0v-.1h0v-.1h0M108-203h0v-.2h0v-.2h0-.1v-.2h0v-.2h0v-.2h0v-.2h0v-.2h0v-.2h0v-.2h0M109.8-206.3v-4.9l.1-.9v-.9l.1-.9.1-1 .1-.8.1-.9.2-.9.1-.8.2-.9.1-.8.2-.9.2-.8.2-.8.3-.8.2-.8.2-.8.3-.8.3-.8.3-.7.3-.8.3-.7.3-.7.4-.8.3-.7.4-.7M153.8-228.8h-.7l-.6.1h-.7l-.6.2h-.6l-.6.2-.6.2-.5.1-.5.2-.5.2-.5.2-.4.2-.5.3-.4.3-.3.3-.4.3-.3.3-.3.3-.3.4-.3.4-.2.4-.2.4-.2.5-.2.4-.1.5-.2.5v.5l-.2.5v.6M142.9-212.6v2.8l.1 1.5v1.4l.1 1.4v1.5l.1 1.4v1.4l.1 1.4.1 1.4v1.4l.1 1.4.1 1.3.1 1.4v1.4l.2 1.4v1.3l.1 1.4.1 1.3.1 1.4.1 1.3.1 1.4.1 1.3.1 1.4.1 1.3.1 1.3.1 1.3.1 1.3.2 1.3v1.3M145.3-171.5v.7l.1.4.1.3v.4l.1.3v.3l.2.3v.3l.1.4v.3l.2.3v.3l.1.3.1.3.1.2.1.3.1.3.1.3.1.3.1.2.1.3.1.2.1.3.2.2v.3l.2.2.1.3.1.2.2.2M148-162.7l.2.4.3.4.3.4.3.4.3.4.3.4.3.4.3.4.3.4.3.4.3.4.3.3.3.4.3.4.4.3.3.4.3.4.4.3.3.4.4.3.3.4.4.3.4.3.3.4.4.3.4.3.4.3.4.3.3.3.4.4M158-151.8h.1l.3.2.2.1.2.1.2.1.2.1.3.1.2.1.2.1.2.1h.2l.3.2h.2l.2.1h.2l.3.1.2.1h.2l.3.1h.2l.2.1h.2l.3.1h.4l.3.1H164.7M176.9-149.3h.4l.4-.1.5-.1.4-.1.4-.2.4-.2.3-.2.4-.2.3-.3.3-.3.3-.3.3-.3.3-.4.3-.4.2-.5.3-.4.2-.5.2-.5.2-.6.2-.5.1-.6.2-.7.1-.6.1-.7.1-.7.1-.8.1-.8v-.8l.1-.8v-.8M184.2-222v-.5l-.1-.4v-.4l-.1-.4v-.3l-.2-.4v-.3l-.2-.4v-.3l-.2-.3-.1-.3-.2-.3-.1-.2-.2-.3-.1-.2-.2-.2-.2-.2-.2-.2-.2-.2-.2-.1-.3-.2-.2-.1-.3-.1-.2-.1-.3-.1h-.3l-.2-.2h-1"/><path d="M186.4-162.7v1l-.1 1-.1 1-.1 1-.1.8-.2.9-.1.8-.2.8-.2.7-.2.7-.2.7-.3.6-.2.6-.3.6-.3.5-.4.5-.3.5-.4.4-.4.4-.4.4-.4.3-.4.3-.5.3-.5.2-.5.2-.5.1-.5.1-.6.1h-.6M164.6-147.6h-1l-.3-.1h-.6l-.2-.1h-.3l-.3-.1h-.2l-.3-.2h-.3l-.2-.1h-.3l-.3-.2h-.2l-.3-.1-.2-.1-.3-.1-.3-.2h-.2l-.3-.2-.2-.1-.3-.1-.3-.2-.2-.1-.3-.1-.2-.2M156.6-150l-.4-.4-.4-.3-.4-.4-.4-.3-.5-.3-.3-.4-.4-.3-.4-.4-.4-.3-.4-.4-.4-.4-.3-.3-.4-.4-.3-.4-.4-.4-.3-.3-.4-.4-.3-.4-.4-.4-.3-.4-.3-.4-.3-.5-.4-.4-.3-.4-.3-.4-.3-.4-.3-.5-.3-.4-.3-.4-.2-.5M146-161.6v-.3l-.2-.2-.2-.3v-.3l-.2-.2-.2-.3v-.3l-.2-.3-.1-.2-.1-.3-.1-.3-.2-.3v-.3l-.2-.4v-.3l-.2-.3v-.3l-.2-.3v-.4l-.1-.3-.1-.4v-.3l-.2-.3v-.4l-.1-.4v-.3l-.1-.4v-.4l-.1-.4v-.3M143-171.2v-1.3l-.2-1.3v-1.3l-.2-1.3v-1.4l-.2-1.3-.1-1.3-.1-1.4-.1-1.3-.1-1.4v-1.3l-.2-1.4v-1.4l-.2-1.3v-1.4l-.1-1.4v-1.4l-.2-1.4v-1.4l-.1-1.4v-1.4l-.1-1.4v-1.4l-.1-1.4-.1-1.4v-1.5l-.1-1.4v-1.5l-.1-1.4v-1.5M140.7-219.8v-1.4l.1-.6.1-.7.2-.6.1-.6.2-.6.3-.5.2-.5.3-.5.3-.5.4-.5.3-.4.4-.4.4-.4.5-.3.5-.4.5-.3.5-.3.6-.3.6-.2.6-.2.7-.2.6-.2.7-.2h.8l.7-.2h.8l.9-.1h.8M179-231h.9l.4.1h.4l.4.2h.4l.4.2.3.2.4.1.3.2.3.2.3.3.3.2.2.3.3.3.2.3.3.3.2.3.2.4.1.4.2.4.2.4.1.5.1.4.1.5.1.5.1.5v.6l.1.5v.6M214.3-600.7l-.3-.2-.4-.2-.3-.3-.3-.2-.3-.2-.3-.2-.4-.2-.3-.1-.3-.2-.3-.2-.4-.1-.3-.2-.3-.1-.3-.1-.4-.1-.3-.2h-.3l-.3-.2h-.4l-.3-.1h-.3l-.4-.1h-.3l-.3-.1h-1l-.3-.1h-.7M204.5-604h-.1 0-.2 0-.2 0-.2 0-.2 0-.2 0H203h0-.2 0-.2 0-.2 0-.2 0-.2 0M202-604l-.2.1h-.2l-.3.1h-.2l-.3.1h-.2l-.2.1-.3.1h-.2l-.3.2h-.2l-.3.1-.2.1-.2.1-.3.2h-.2l-.3.2-.2.1-.3.1-.2.2h-.2l-.3.2-.2.2-.3.1-.2.2-.2.1-.3.2-.2.2-.3.2-.2.1M185.6-593.2h0-.1 0v.1h0-.1 0l-.1.1h0-.1 0v.1h0-.1 0v.1h-.1 0l-.1.1h0M184.9-592.7l-.3.2-.3.2-.3.2-.3.2-.3.2-.3.2-.2.1-.3.2-.3.2-.3.2-.3.1-.3.2-.3.1-.3.2-.3.2-.3.1-.3.1-.3.2-.3.1-.3.2h-.3l-.3.2-.3.1-.3.2h-.3l-.3.2-.4.1-.3.1-.3.1-.3.1"/><path d="M176-588.2h-.2 0l-.1.1h-.1 0-.2v.1h-.2 0l-.2.1h0-.1 0-.2v.1h-.2 0l-.2.1h0-.2 0l-.2.1h0H173.5h0M173.2-587.4l-2.4.5-2.3.5-2.3.6-2.3.6-2.2.6-2.2.7-2.2.7-2.2.7-2.2.8-2 .8-2.2.8-2 .8-2 .9-2.1 1-2 .8-2 1-1.9 1-2 1-1.8 1.1-1.9 1.1-1.8 1.1-1.8 1.2-1.8 1.2-1.8 1.2-1.7 1.2-1.7 1.3-1.7 1.3-1.7 1.4-1.6 1.3-1.6 1.4M113.8-558.8l-.6.6-.6.6-.6.6-.6.5-.6.6-.6.6-.6.6-.6.6-.6.5-.5.6-.6.6-.6.6-.6.6-.6.6-.5.6-.6.6-.6.6-.5.6-.6.6-.6.6-.5.6-.6.6-.5.6-.6.6-.5.6-.6.6-.5.7-.6.6-.5.6-.6.6M96.6-540.9l-.6.8-.7.7-.6.8-.6.8-.7.7-.6.8-.6.8-.6.8-.6.8-.7.7-.6.8-.6.8-.6.8-.6.8-.6.8-.6.8-.6.8-.5.8-.6.8-.6.8-.6.8-.5.9-.6.8-.6.8-.5.8-.6.9-.5.8-.6.8-.5.9-.6.8M78.8-516.9v.2l-.2.1-.1.2-.1.2-.1.2-.1.1-.2.2v.2l-.2.2v.2l-.2.1-.1.2-.1.2-.1.2-.1.1-.2.2v.2l-.2.2v.1l-.2.2-.1.2-.1.2-.1.2-.1.1-.1.2-.2.2v.2l-.2.2v.1l-.2.2M94-703l-.4.6-.5.6-.5.5-.5.6-.5.6-.5.5-.4.6-.5.5-.5.5-.5.6-.5.5-.5.5-.5.5-.5.5-.5.5-.4.5-.5.4-.5.5-.5.5-.5.4-.5.5-.5.4-.5.5-.5.4-.5.4-.5.4-.5.4-.5.4-.5.4-.5.4M79.3-688.4l-.7.5-.7.5-.6.5-.7.4-.6.4-.6.4-.7.4-.6.4-.6.3-.5.3-.6.3-.6.2-.5.3-.5.2-.6.1-.5.2-.5.1-.4.2h-.5l-.5.1h-2.1l-.4-.1-.3-.1-.4-.1-.3-.2M64-683.3h0-.1 0M63.8-683.4l-.3-.2-.3-.2-.2-.2-.3-.3-.2-.3-.2-.3-.2-.3-.2-.3-.2-.4-.1-.4-.1-.4-.2-.4v-.4l-.1-.5v-.5l-.1-.5v-2.1l.1-.6v-.7l.2-.6v-.6l.2-.7.2-.7.1-.7.2-.8.2-.7.3-.8M63-699.6h.1V-700l.1-.1V-700.3h.1v-.2h0l.1-.2v-.1l.1-.1V-701.2h.1v-.2h0l.1-.2v-.1l.1-.1V-702.1h.1v-.2h.1V-702.7l.1-.1v-.1l.1-.1M64.2-703h.1v-.1h0v-.1h.1v-.1h0v-.1h0M68.1-710.7l.5-.9.6-.8.5-.9.6-.8.6-.9.6-.8.7-.9.6-.8.7-.9.7-.8.7-.9.8-.9.7-.8.8-.9.8-.8.8-.9.8-.8.9-.9.8-.9 1-.8.8-.9 1-.8 1-.9.9-.9 1-.8 1-.9 1-.9 1-.8 1.1-.9 1.1-.8M96.2-739.7l.7-.5.6-.5.7-.4.6-.4.6-.4.6-.4.6-.4.6-.3.6-.3.5-.3.6-.2.5-.2.5-.2.6-.2.5-.2.5-.1.5-.1.4-.1h.5l.5-.1H109l.4.1.4.1.4.2.4.1.3.2.4.2M112.4-742v.3l.1.3v.4l.1.4v1.8l-.1.5-.1.5v.6l-.2.5-.1.6-.2.6-.1.6-.2.7-.2.6-.2.7-.2.7-.2.7-.2.7-.3.8-.3.8-.3.8-.3.8-.3.8-.3.8-.4 1-.4.8-.4.9M107.6-723.3v.2l-.2.2v.2l-.2.2v.2l-.2.2-.1.2-.1.2-.1.2-.1.2-.2.2v.2l-.2.2v.2l-.2.2-.1.2-.1.2-.2.2v.2l-.2.2-.1.2-.1.2-.2.2v.2l-.2.2-.1.2-.1.2-.2.2v.2l-.2.2M104.2-717.3l-.1.3-.2.2-.1.2-.2.2-.1.3-.2.2-.1.2-.2.3-.1.2-.1.2-.2.2-.1.3-.2.2-.2.2-.1.3-.2.2-.1.2-.2.3-.1.2-.2.2-.1.2-.2.3-.2.2-.1.2-.2.3-.1.2-.2.3-.2.2-.1.2M99.6-710.4l-.2.3-.2.3-.2.2-.1.3-.2.2-.2.3-.2.2-.2.3-.2.2-.1.3-.2.2-.2.3-.2.2-.2.3-.2.2-.2.3-.1.2-.2.3-.2.2-.2.2-.2.3-.2.2-.1.2-.2.3-.2.2-.2.3-.2.2-.2.2-.2.3M59.4-505.6l.4.4.4.4.4.4.3.4.4.4.4.5.3.4.3.4.4.4.3.4.3.4.3.4.3.5.3.4.3.4.3.4.3.5.3.4.2.4.3.5.2.4.3.4.2.5.2.4.2.5.2.4.2.5.2.4.2.5"/><path d="M93.2-556.8V-554.5l.1.6v.5l.1.6v.5l.1.6.1.5v.6l.2.5v.6l.2.5v.6l.2.5.1.5.1.5.2.5.1.6.2.5.2.5.1.5.2.5.2.5.2.5.2.5.2.5.2.4.2.5M54-289.2l.2-2v-2l.1-2v-2l.2-2v-2.1l.1-2 .1-2.1.1-2.1.1-2 .1-2.2.1-2 .1-2.2.1-2 .1-2.2.2-2v-2.2l.2-2.1.1-2.2.1-2.1.2-2.2v-2.1l.2-2.2.1-2.2.2-2.2.1-2.2.2-2.2.1-2.2.1-2.2.2-2.2M57.4-352.6v-2.8l.1-1.4v-13.3l-.1-1.3v-1.2l-.1-1.3v-1.2l-.1-1.2v-1.2l-.2-1.2v-1.2l-.1-1.1-.1-1.1-.1-1.2-.1-1-.2-1.2v-1l-.2-1.2-.1-1M56-389.8l-.2 3.6-.2 3.5-.1 3.6-.2 3.5-.1 3.5-.2 3.5-.2 3.5-.2 3.5-.1 3.5-.2 3.5-.2 3.4-.2 3.5-.2 3.4-.3 3.4-.2 3.5-.2 3.4-.2 3.4-.3 3.4-.2 3.3-.3 3.4-.2 3.4-.3 3.3-.3 3.4-.2 3.3-.3 3.3-.3 3.3-.3 3.3-.3 3.3-.3 3.3-.3 3.3M49.2-287.3h.2l.1-.1h.2l.1-.1h.2l.2-.1h.1l.2-.1h.2l.1-.1h.2l.1-.1h.2l.2-.1h.1l.2-.2H52.1l.2-.1.2-.1h.1l.2-.2h.1l.2-.1h.2l.1-.1.2-.1.2-.1h.1l.2-.2M67.6-466.5v21.9l.1 5.5v16.3l.1 5.4v5.4l.1 5.5v5.4l.1 5.4v5.4l.1 5.4v5.4l.1 5.4v5.3l.1 5.4v5.4l.2 5.3v5.4l.1 5.3v5.4l.2 5.3v5.3l.1 5.4.1 5.3v5.3M69.2-302.5h0v.2h0V-302h0v.2h0v.2h0v.2h0V-301h0v.2h0v.2h0v.2h0v.2h0v.2h0M69.3-300h0v.1h0v.1h0v.1h0v.1h0v.1h0v.1h0v.1h0M299.3-206.3v-4.9l-.1-.9-.1-.9v-.9l-.2-1v-.8l-.2-.9-.1-.9-.2-.8-.1-.9-.2-.8-.2-.9-.2-.8-.2-.8-.2-.8-.2-.8-.3-.8-.2-.8-.3-.8-.3-.7-.3-.8-.3-.7-.4-.7-.3-.8-.4-.7-.3-.7M266.2-212.6v2.8l-.1 1.5v1.4l-.1 1.4v1.5l-.1 1.4-.1 1.4v1.4l-.1 1.4-.1 1.4v1.4l-.2 1.3v1.4l-.1 1.4-.1 1.4v1.3l-.2 1.4v1.3l-.2 1.4v1.3l-.1 1.4-.2 1.3v1.4l-.2 1.3v1.3l-.2 1.3-.1 1.3-.1 1.3M263.8-171.5v.4l-.1.3v.4l-.1.3-.1.4v.3l-.1.3v.3l-.2.3v.4l-.1.3v.3l-.2.3v.3l-.1.3-.1.2-.1.3-.1.3-.1.3-.1.3-.1.2-.1.3-.1.2-.1.3-.2.2v.3l-.2.2-.1.3-.1.2-.2.2M261.1-162.7l-.2.4-.3.4-.3.4-.3.4-.3.4-.3.4-.3.4-.3.4-.3.4-.3.4-.3.4-.3.3-.3.4-.4.4-.3.3-.3.4-.4.4-.3.3-.4.4-.3.3-.4.4-.3.3-.4.3-.4.4-.3.3-.4.3-.4.3-.4.3-.4.3-.4.4M251.1-151.8h-.2l-.2.2-.2.1-.3.1-.2.1-.2.1-.2.1-.3.1-.2.1-.2.1h-.2l-.2.2h-.3l-.2.1h-.2l-.2.1-.3.1h-.2l-.2.1h-.3l-.2.1h-.2l-.2.1h-.5l-.2.1h-1M232.2-149.3h-.4l-.5-.1-.4-.1-.4-.1-.4-.2-.4-.2-.3-.2-.4-.2-.3-.3-.4-.3-.3-.3-.3-.3-.2-.4-.3-.4-.3-.5-.2-.4-.2-.5-.2-.5-.2-.6-.2-.5-.2-.6-.1-.7-.1-.6-.2-.7v-.7l-.2-.8v-.8l-.1-.8v-.8l-.1-.8M224.9-222v-.9l.1-.4v-.4l.2-.3v-.4l.1-.3.1-.4.1-.3.2-.3v-.3l.2-.3.2-.2.1-.3.2-.2.2-.2.2-.2.2-.2.2-.2.2-.1.2-.2.3-.1.2-.1.3-.1.3-.1h.2l.3-.2H230.1M255.2-228.8h.7l.7.1h.6l.7.2h.6l.6.2.5.2.6.1.5.2.5.2.4.2.5.2.4.3.4.3.4.3.3.3.4.3.3.3.3.4.2.4.3.4.2.4.2.5.2.4.1.5.1.5.1.5.1.5v.6l.1.5M80.5-301.8v-5.2l-.2-5.1v-5.2l-.1-5.2-.1-5.2v-5.2l-.2-5.2v-5.3l-.1-5.2v-5.2l-.1-5.2-.1-5.3v-5.2l-.1-5.3v-5.2l-.1-5.3v-5.2l-.1-5.3v-5.3l-.1-5.3v-10.5l-.1-5.3V-438.1l-.1-5.4V-459.4M72-464.3V-448.1l.1 5.4v10.7l.1 5.4v10.7l.1 5.4v10.6l.1 5.4v5.3l.1 5.3v5.4l.1 5.3.1 5.3v5.3l.1 5.3.1 5.3v5.2l.1 5.3.1 5.3v5.3l.2 5.2v5.3l.1 5.2.1 5.3.1 5.2M80.5-299.7h0v-.2h0v-.1h0v-.2h0v-.2h0v-.2h0v-.2h0v-.2h0v-.1h0v-.2h0v-.2h0v-.2h0M73.6-302.7h0v.1h0v.1h0v.2h0v.1h0v.2h0v.2h0v.2h0v.2h0v.2h0v.2h0v.2h0v.2h0v.1h0M198.4-152v-.1h-.2 0-.2 0l-.2-.1h0-.2v-.1h-.2v-.1h-.1 0l-.2-.1h0v-.1h-.1l-.1-.1h0l-.1-.1v-.1h-.1v-.2h-.1v-.2l-.1-.1M196.5-153.4l-.1-.6-.1-.6-.2-.6v-.6l-.2-.6v-.6l-.2-.6v-.6l-.2-.6v-.7l-.1-.6-.1-.6-.1-.6v-.7l-.2-.6V-164l-.1-.7-.1-.6v-.7l-.1-.6v-.7l-.1-.7V-169.2l-.1-.7v-1.4l-.1-.7v-.7M194.4-225.6v-1l.1-.2v-.2l.1-.1v-.2l.2-.2v-.1l.1-.1v-.2l.2-.1v-.1l.2-.1.1-.1.1-.1.1-.1.2-.1h.1l.1-.2h.4l.1-.1h.2l.2-.1h.5M211.7-229H212.6l.1.1h.2l.1.1.2.1h.1l.1.2h.2v.2h.2v.2l.2.1v.1l.2.2v.1l.1.1v.2l.1.2.1.1v.4l.1.2v.8M214.7-172.7V-170.6l-.1.7V-168.6l-.1.7v.7l-.1.7v.6l-.1.7v.6l-.1.7-.1.6v.7l-.1.6-.1.7-.1.6v.6l-.2.6v.7l-.1.6-.1.6-.1.6-.1.6-.2.6v.6l-.2.6-.1.6-.1.6M212.6-153.5v.1h0v.1l-.1.1h0v.2h-.1 0l-.1.1v.1h-.1v.1h-.1l-.1.1h0l-.1.1h-.1 0l-.1.1h-.1l-.1.1h0-.2 0l-.2.1h0H210.7l-.2.1M279.8-289.4h3.7l.7-.1h.8l.7-.1h.7l.8-.1h.7l.8-.1.7-.1h.7l.8-.2h.7l.8-.1.7-.1.8-.1.7-.1.8-.1.7-.1.8-.2h.7l.8-.2.7-.1.8-.2.7-.1.8-.1.7-.2M302.1-289.6l-.7.1-.8.2-.7.1-.8.1-.7.2-.8.1-.7.1-.8.1-.7.2h-.8l-.7.2h-.8l-.7.2h-.8l-.7.1-.8.1h-.7l-.7.2h-1.5l-.8.2H285l-.8.1h-1.4l-.8.1h-2.2M129.3-287.1H127l-.7-.1h-.7l-.8-.1h-1.4l-.8-.1-.7-.1h-.8l-.7-.1-.7-.1h-.8l-.7-.2h-.8l-.7-.1-.7-.1-.8-.1-.7-.1-.8-.1-.7-.2h-.8l-.7-.2-.8-.1-.7-.2h-.8l-.7-.2-.8-.2-.7-.1M107-227.4V-223.5l.1.8v3l.1.8v2.3l.1.7v1.5l.1.7v1.5l.1.8v1.4l.1.7v.8l.1.7v.7l.1.7v1.5M107.9-205V-204.6h0v.2h0v.2h0v.2h0v.1h0v.2h0v.2h0v.2h0v.1h0v.2h0v.2h0v.2h0v.1M108.6-195.4l.2 2.7.3 2.6.2 2.6.3 2.6.3 2.6.3 2.6.4 2.5.3 2.6.3 2.6.4 2.6.4 2.5.4 2.6.4 2.5.4 2.6.4 2.5.5 2.5.4 2.6.5 2.5.5 2.5.4 2.5.6 2.5.5 2.5.5 2.5.6 2.5.5 2.4.6 2.5.6 2.5.6 2.4.6 2.5.6 2.4"/><path d="M121.6-119.4l-.6-2.7-.6-2.7-.6-2.7-.5-2.7-.6-2.7-.5-2.7-.5-2.7-.5-2.8-.5-2.7-.5-2.8-.4-2.7-.5-2.8-.4-2.7-.4-2.8-.4-2.8-.4-2.8-.3-2.8-.4-2.8-.3-2.8-.3-2.8-.4-2.8-.2-2.9-.3-2.8-.3-2.9-.2-2.8-.3-2.9-.2-2.8-.2-2.9-.2-2.9-.1-2.9"/><path d="M110-203h0v-.2h0v-.2h0v-.2h0v-.2h0v-.2h0v-.2h0v-.2h0-.1v-.2h0v-.2h0v-.1M109.4-215.7h0v-.2h0v-.2h0v-.2h0v-.2h0v-.2h0v-.2h0v-.2h0v-.1h0v-.2h0v-.2h0v-.2h0v-.1l-.1-.1h0M109.3-218v-2.2l.1-2 .2-2 .2-1.9.4-1.8.4-1.8.4-1.8.6-1.7.6-1.6.7-1.6.8-1.6.9-1.4 1-1.5 1-1.3 1-1.3 1.2-1.3 1.2-1.2 1.4-1.2 1.4-1 1.4-1.1 1.6-1 1.6-1 1.7-.8 1.8-.8 1.9-.8 1.9-.7 2-.7 2.1-.6 2.2-.5 2.2-.5M143.2-256.7l2-.3 1.9-.3 2-.3 1.9-.2 2-.3 1.9-.2 1.9-.3 2-.2 1.9-.2 2-.2 2-.2 1.9-.2 2-.2 1.9-.1 2-.2 2-.1 1.9-.2 2-.1 2-.1 1.9-.1 2-.1 2-.1h2l1.9-.2h4l2-.1h6M205.8-261.3H206.9M207-261.3h6l1.9.1h2l2 .1 2 .1h1.9l2 .2h2l2 .2h1.9l2 .2 2 .2 1.9.1 2 .2 1.9.1 2 .2 2 .2 1.9.2 2 .2 1.9.2 2 .2 1.9.3 2 .2 1.9.3 2 .2 1.8.3 2 .3M265.8-256.7l2.3.5 2.1.5 2.1.6 2 .7 2 .7 1.8.8 1.8.8 1.7.9 1.7 1 1.5.9 1.5 1 1.4 1.1 1.3 1.2 1.3 1.2 1.1 1.3 1.1 1.3 1 1.3 1 1.5.8 1.5.8 1.5.7 1.6.7 1.6.5 1.7.5 1.8.4 1.8.3 1.8.3 2 .2 2v2M299.8-218h0V-217.6h0v.2h0v.2h0v.2h0v.2h0v.2h0v.2h-.1v.2h0v.2h0v.2h0v.1M299.2-205v.1h0v.2h0v.2h0v.2h0v.2h0v.2h0v.2h0v.2h0v.2h0v.2h-.1M299.1-203l-.2 3-.2 2.8-.2 2.9-.2 2.8-.2 2.9-.2 2.8-.3 2.9-.3 2.8-.3 2.9-.3 2.8-.3 2.8-.3 2.8-.4 2.8-.3 2.8-.4 2.8-.4 2.8-.4 2.8-.5 2.7-.4 2.8-.5 2.7-.4 2.8-.5 2.7-.5 2.8-.5 2.7-.6 2.7-.5 2.7-.6 2.7-.5 2.7-.6 2.7M268.4-219.8v-1.4l-.2-.6v-.7l-.2-.6-.2-.6-.2-.6-.2-.5-.3-.5-.2-.5-.4-.5-.3-.5-.4-.4-.4-.4-.4-.4-.4-.3-.5-.4-.5-.3-.6-.3-.5-.3-.6-.2-.7-.2-.6-.2-.7-.2-.7-.2h-.7l-.8-.2h-.8l-.8-.1h-.9M230-231h-.8l-.5.1h-.4l-.4.2h-.3l-.4.2-.4.2-.3.1-.3.2-.3.2-.3.3-.3.2-.3.3-.2.3-.3.3-.2.3-.2.3-.2.4-.2.4-.1.4-.2.4-.1.5-.2.4v.5l-.2.5v.5l-.1.6v.5l-.1.6M222.7-162.7v1l.1 1v1l.2 1v.8l.2.9.2.8.2.8.2.7.2.7.2.7.2.6.3.6.3.6.3.5.3.5.4.5.4.4.3.4.4.4.5.3.4.3.5.3.4.2.5.2.6.1.5.1.6.1h1.1M244.4-147.6h1.1l.3-.1h.5l.3-.1h.3l.2-.1h.3l.3-.2h.2l.3-.1h.3l.2-.2h.3l.3-.1.2-.1.3-.1.2-.2h.3l.3-.2.2-.1.3-.1.2-.2.3-.1.2-.1.3-.2.3-.1M252.4-150h0M252.5-150l.4-.4.4-.3.4-.4.4-.3.4-.3.4-.4.4-.3.4-.4.4-.3.4-.4.3-.4.4-.3.4-.4.3-.4.4-.4.3-.3.4-.4.3-.4.3-.4.4-.4.3-.4.3-.5.3-.4.3-.4.3-.4.3-.4.3-.5.3-.4.3-.4.3-.5M263-161.6l.2-.3v-.2l.2-.3.2-.3.1-.2.1-.3.1-.3.2-.3v-.2l.2-.3.1-.3.1-.3.1-.3.1-.4.1-.3.1-.3.1-.3.1-.3.1-.4v-.3l.2-.4v-.3l.1-.3.1-.4v-.4l.1-.3.1-.4v-.4l.1-.4v-.3M266-171.2l.1-1.3.1-1.3.1-1.3.1-1.3.2-1.4v-1.3l.2-1.3v-1.4l.2-1.3v-1.4l.1-1.3.1-1.4.1-1.4.1-1.3v-1.4l.2-1.4v-1.4l.1-1.4v-1.4l.2-1.4v-2.8l.2-1.4v-2.8l.1-1.5v-1.4l.1-1.5v-1.4l.1-1.5M332.8-299.3l-.7.3-.7.3-.6.2-.7.3-.6.3-.7.2-.7.3-.6.3-.7.2-.6.3-.7.2-.6.2-.7.3-.6.2-.7.3-.6.2-.7.2-.6.2-.7.3-.6.2-.7.2-.6.2-.7.2-.6.2-.7.2-.6.2-.7.2-.6.2-.7.2-.6.2M294.6-609.6l-.5-.8-.7-.9-.8-.9-.9-.8-1-1-1-.8-1-.9-1.3-.9-1.3-.9-1.4-.9-1.5-.9-1.6-.9-1.7-.9-1.7-1-1.9-.9-2-.9-2-1-2-.9-2.3-1-2.3-.9-2.4-1-2.5-1-2.5-.9-2.7-1-2.8-1-2.8-1-3-1-3-1-3-1-3.3-1M237.7-637.6l-.7-.2-.7-.3-.6-.2-.7-.3-.6-.4-.6-.3-.6-.4-.6-.3-.5-.4-.6-.5-.5-.4-.5-.5-.5-.5-.4-.5-.5-.5-.4-.6-.4-.5-.4-.6-.3-.6-.4-.7-.3-.6-.3-.7-.3-.7-.2-.7-.3-.8-.2-.7-.2-.8-.2-.8-.2-.8M221.8-686.5l-.1-.5v-.5l-.1-.4V-689.6l.1-.4v-.3l.2-.4v-.3l.2-.3.1-.2.2-.3.2-.2.2-.2.2-.2.2-.2.2-.1.3-.2h.3l.3-.2h.3l.3-.1h2.4M227.3-693.1l1.8.3 1.8.4 1.8.4 1.7.4 1.7.4 1.7.5 1.6.4 1.6.5 1.6.5 1.5.5 1.5.5 1.5.5 1.4.5 1.4.6 1.3.6 1.4.5 1.2.6 1.3.7 1.2.6 1.2.6 1.1.7 1.1.7 1 .6 1.1.7 1 .8 1 .7.9.7.9.8.9.8.8.7M270.3-672.4l.7.9.7.9.7.9.7 1 .6 1 .7 1 .7 1 .7 1 .6 1 .7 1.1.7 1.2.6 1.1.7 1.2.7 1.2.6 1.2.7 1.2.6 1.3.7 1.3.6 1.3.6 1.3.7 1.4.6 1.4.7 1.4.6 1.4.6 1.5.6 1.5.7 1.5.6 1.5.6 1.6.6 1.6M290-635.5V-635.2l.1.2v.1l.1.1v.1l.1.2v.1l.1.1v.2h.1v.2l.1.1v.2h0l.1.2v.1l.1.2v.1l.1.1v.2h.1v.2l.1.1v.2l.1.1v.1l.1.2v.1M292.2-629l.1.6.2.6.2.6.1.7.2.6.1.6.2.6v.7l.2.6.1.6.1.7.1.6.1.6.1.7.1.6.1.7v.6l.1.7.1.6v.7l.1.6v1.4l.1.6v4.1"/><path d="M294.6-609.6l1.3 2.2 1.3 2.2 1.1 2.1 1.2 2.1 1.1 2.1 1 2 1.1 2 1 2 1 2 1 2 .8 1.9.8 1.8.8 1.9.8 1.8.7 1.7.7 1.8.7 1.7.6 1.7.6 1.6.5 1.6.5 1.6.4 1.6.4 1.5.4 1.5.4 1.5.3 1.4.2 1.4.2 1.4.2 1.4.2 1.3"/><path d="M315.9-556.8v-2.2l-.1-.3v-1.1l-.1-.2V-561.5l-.1-.2v-.6l-.1-.3v-.5l-.1-.3v-.6l-.1-.3v-.3l-.1-.2v-.3M314.3-569.1l-.4-1.9-.5-1.9-.5-1.9-.5-1.9-.5-1.9-.5-1.9-.5-2-.6-1.9-.5-1.9-.6-2-.5-2-.6-1.9-.6-2-.6-2-.7-2-.6-2-.6-2-.7-2-.7-2-.7-2-.7-2-.7-2.1-.7-2-.7-2.1-.8-2.1-.7-2.1-.8-2.1-.8-2.1-.8-2.1-.8-2.1M295.4-629l-.7-2-.7-2-.7-1.9-.7-1.9-.7-1.8-.8-1.9-.7-1.8-.7-1.7-.8-1.7-.7-1.7-.8-1.7-.7-1.6-.8-1.6-.7-1.6-.8-1.5-.7-1.5-.8-1.4-.8-1.4-.7-1.4-.8-1.4-.8-1.3-.8-1.3-.8-1.3-.8-1.2-.8-1.2-.8-1.2-.8-1-.8-1.2-.8-1M269.4-678l-1-.8-.8-.8-1-.8-1-.8-1.2-.8-1.1-.8-1.3-.7-1.2-.8-1.4-.7-1.3-.7-1.5-.7-1.5-.7-1.5-.6-1.6-.7-1.7-.6-1.7-.6-1.8-.6-1.8-.6-2-.6-1.9-.5-2-.5-2-.6-2.2-.5-2.1-.5-2.3-.4-2.2-.5-2.4-.4-2.4-.4-2.4-.5M224.2-592.7l.3.2.3.2.3.2.2.2.3.2.3.2.3.1.3.2.3.2.3.2.3.1.3.2.3.1.3.2.3.2.2.1.3.1.3.2.3.1.3.2h.3l.3.2.3.1.3.2h.4l.3.2.3.1.3.1.3.1M233-588.2h.2l.1.1h.2l.2.1h.2v.1h.4l.1.1h.2l.1.1h.4v.1h.4M235.9-587.4l2.3.5 2.4.5 2.3.6 2.2.6 2.3.6 2.2.7 2.2.7 2.2.7 2.1.8 2.2.8 2 .8 2.1.8 2 .9 2 1 2 .8 2 1 2 1 1.9 1 1.9 1.1 1.8 1.1 1.9 1.1 1.8 1.2 1.8 1.2 1.7 1.2 1.8 1.2 1.7 1.3 1.7 1.3 1.6 1.4 1.6 1.3M295.2-558.8l.6.6.6.6.6.6.6.5.6.6.6.6.6.6.6.6.6.5.6.6.6.6.6.6.5.6.6.6.6.6.6.6.5.6.6.6.6.6.5.6.6.6.5.6.6.6.5.6.6.6.5.6.6.7.5.6.6.6M312.4-540.9l.2-.5.3-.4.2-.5.2-.5.2-.5.2-.5.1-.5.2-.5.2-.5.1-.5.2-.6.1-.5.2-.5v-.5l.2-.6.1-.5.1-.5.1-.6.1-.5v-.6l.1-.5.1-.6v-.5l.1-.6v-.5l.1-.6v-1.7M370-671.1l-.6-1.4-.6-1.4-.6-1.3-.6-1.4-.6-1.3-.7-1.3-.7-1.4-.7-1.3-.7-1.3-.7-1.3-.8-1.3-.8-1.3-.8-1.3-.9-1.2-.9-1.3-.9-1.2-.9-1.3-1-1.2-.9-1.3-1-1.2-1-1.2-1-1.2-1-1.2-1.1-1.2-1.1-1.2-1.1-1.2-1.2-1.1-1.2-1.2-1.2-1.1-1.2-1.2M349-695.7l.3.9.2.8.2.9.2.8.2.7.1.8.1.7.1.8.1.6v.7l.1.7v2.9l-.2.5v.5l-.2.4-.1.5-.2.4-.2.4-.2.4-.2.3-.3.3-.2.4-.3.2-.3.3-.4.2-.3.3M347.5-679.3l-.4.2-.4.1-.3.2h-.4l-.5.2h-2.8l-.5-.2-.5-.1-.5-.2-.6-.1-.6-.2-.5-.3-.6-.2-.6-.3-.7-.3-.6-.3-.7-.4-.6-.4-.7-.4-.7-.5-.7-.4-.7-.5-.7-.5-.8-.6-.7-.6M330.7-685l-.8-.7-.8-.6-.7-.6-.8-.6-.7-.7-.8-.7-.7-.6-.8-.7-.7-.8-.8-.7-.7-.7-.8-.8-.7-.8-.8-.8-.7-.8-.8-.8-.7-.8-.7-.9-.8-.8-.7-1-.7-.8-.8-1-.7-.9-.7-.9-.8-1-.7-1-.7-.9-.7-1-.8-1-.7-1M308.4-709.5l-.3-.5-.4-.5-.3-.4-.4-.5-.3-.5-.3-.5-.3-.5-.4-.5-.3-.5-.3-.5-.3-.5-.3-.5-.3-.5-.3-.4-.3-.5-.3-.5-.3-.5-.3-.5-.3-.4-.2-.5-.3-.5-.3-.4-.2-.5-.3-.5-.3-.5-.2-.4-.3-.5-.2-.4-.3-.5-.2-.5M299.6-723.9l-.3-.5-.2-.5-.3-.5-.2-.5-.2-.5-.3-.4-.2-.5-.2-.5-.2-.5-.2-.5-.3-.5-.2-.5-.2-.5-.2-.4-.2-.5-.2-.5-.1-.5-.2-.4-.2-.5-.2-.5-.2-.5-.1-.4-.2-.5-.1-.5-.2-.4-.2-.5-.1-.5-.1-.4-.2-.5-.1-.5M293.8-738.3h0v-.2l-.1-.1v-.2l-.1-.1V-739.2h-.1v-.2h0l-.1-.2V-739.9l-.1-.1v-.4h-.1v-.2h0v-.2h-.1v-.2h0v-.2h0l-.1-.2h0M292.6-743.5v-.3l-.1-.3v-.2l-.1-.3v-.8l-.1-.2v-1.5l-.1-.2V-749.2l.1-.2v-.4l.1-.2v-.4M292.5-750.4l-2.7-1.5-2.8-1.5-2.7-1.4-2.8-1.4-2.8-1.3-2.7-1.3-2.8-1.3-2.8-1.1-2.8-1.2-2.8-1-2.8-1-2.9-1-2.8-1-2.8-.8-2.9-.9-2.9-.7-2.8-.8-2.9-.6-2.9-.7-2.9-.5-2.8-.6-3-.4-2.9-.4-2.9-.4-2.9-.3-3-.3-2.9-.2-3-.2-2.9-.1h-3M202.1-774.4l-3 .1-2.9.1-3 .2-2.9.2-3 .3-2.8.3-3 .4-2.9.4-2.9.4-2.9.6-2.9.5-2.8.7-2.9.6-2.9.8-2.8.7-2.9.9-2.8.8-2.8 1-2.9 1-2.8 1-2.8 1-2.8 1.2-2.8 1.1-2.8 1.3-2.8 1.3-2.7 1.3-2.8 1.4-2.7 1.4-2.8 1.5M116.6-750.4V-749.8l.1.2V-749l.1.2v3.9l-.1.3v.3l-.1.2v.3M116.1-741.5v.4l-.1.1V-740.7l-.1.1V-740.3l-.1.2h0v.2h0l-.1.2h0v.2l-.1.1V-739l-.1.2h0v.2h-.1V-738.3M115.3-738.3l-.1.5-.2.5-.1.4-.2.5-.1.5-.2.4-.1.5-.2.5-.2.4-.1.5-.2.5-.2.5-.2.4-.2.5-.2.5-.2.5-.2.4-.2.5-.2.5-.2.5-.2.5-.2.5-.3.5-.2.5-.2.5-.3.4-.2.5-.2.5-.3.5M109.5-723.9l-.3.5-.2.5-.3.4-.2.5-.3.4-.2.5-.3.5-.3.5-.2.4-.3.5-.3.5-.3.4-.3.5-.2.5-.3.5-.3.5-.3.4-.3.5-.3.5-.3.5-.4.5-.3.5-.3.5-.3.5-.3.5-.4.5-.3.5-.4.5-.3.4M100.7-709.5l-.8 1-.7 1-.7 1-.7 1-.8 1-.7 1-.7 1-.7.9-.8.9-.7.9-.8.9-.7.8-.7.9-.8.8-.7.8-.7.8-.8.8-.7.8-.8.8-.7.7-.8.7-.7.8-.8.7-.7.6-.8.7-.7.7-.8.6-.8.6-.7.6M78.4-685l-.7.5-.8.6-.7.5-.7.5-.7.4-.7.5-.7.4-.7.4-.6.4-.7.3-.6.3-.6.3-.6.2-.6.3-.5.2-.6.1-.5.2-.6.1-.5.1-.5.1h-2.3l-.4-.1-.4-.1-.4-.2-.4-.1M61.6-679.3l-.4-.2-.3-.3-.3-.3-.3-.2-.3-.4-.2-.3-.2-.3-.2-.4-.2-.4-.2-.4-.1-.5-.2-.4v-.5l-.1-.5-.1-.6v-3.7l.1-.6.1-.8.2-.7.1-.8.2-.7.2-.8.2-.9.2-.8M61.9-701.2h0v-.1h0v-.1h0v-.1h.1v-.1h0v-.1h0M65.5-708.9l-1.2 1.2-1.2 1.1-1.1 1.2-1.2 1.1-1.1 1.2-1.1 1.2-1 1.2-1.1 1.2-1 1.2-1 1.2-1 1.2-1 1.3-1 1.2-.9 1.3-.9 1.2-.9 1.3-.8 1.2-.8 1.3-.8 1.3-.8 1.3-.7 1.3-.8 1.3-.7 1.3-.7 1.4-.6 1.3-.7 1.3-.6 1.4-.6 1.3-.5 1.4-.6 1.4M316.5-738.5h0v-.1h-.1 0l-.1-.1h0-.1v-.1h-.1v-.1h0-.1v-.1h-.1 0l-.1-.1h0l-.1-.1h0-.1v-.1h-.1v-.1h-.1 0l-.1-.1h0l-.1-.1h0-.1M315.1-739.7h-.1l-.1-.2h-.1l-.1-.1-.1-.1-.1-.1h-.1l-.1-.2h-.1l-.1-.1-.1-.1-.1-.1h-.1l-.1-.2h-.1l-.1-.1-.1-.1-.1-.1h0l-.2-.2h0l-.2-.1v-.1h-.2v-.2h-.2v-.1h-.2v-.2M312.1-742.1l-.6-.5-.6-.5-.6-.4-.6-.4-.6-.4-.6-.4-.6-.4-.5-.3-.6-.3-.6-.3-.5-.3-.5-.2-.6-.3-.5-.2-.5-.2-.5-.2-.5-.1-.4-.2h-.5l-.5-.2h-.4l-.5-.1h-2.5l-.4.1-.3.1M297-747.8h0-.1v.1h-.1 0-.1v.1h-.2 0-.1v.1h-.1 0-.1v.1h-.1 0-.1v.1h-.2 0l-.1.1h0-.1 0l-.1.1h0"/><path d="M294.2-741.9v.8l.1.5v.4l.1.5.1.5.1.4.1.5.1.6.1.5.2.5.1.6.2.5.1.6.2.6.2.6.2.7.2.6.2.6.2.7.3.7.2.7.3.7.3.7.2.7.3.7.3.8.3.8.4.7.3.8M292.5-750.4l.3-.2.4-.3.3-.2.4-.1.4-.1.4-.1h2l.5.2.6.1.6.2.6.2.7.3.6.3.7.3.7.4.8.4.7.4.8.5.8.5.8.6.9.5.9.7.9.6 1 .7.9.8 1 .7 1 .8M312.1-742.1h.2l.1.2h.2v.2l.2.1.2.1.1.1.2.1.1.1.1.2h.2l.1.2.2.1.1.1.2.2h.1l.2.2.1.1.2.1.1.2h.2l.1.2.1.1.2.2.1.1.2.1.1.2.2.1.2.1M316.5-738.5l1.2 1 1.2.9 1.1 1 1.1 1 1.1.9 1.1 1 1 1 1.1.9 1 1 1 .9 1 1 1 1 .9.9 1 1 .8.9.9 1 .8.9.9 1 .8.9.7 1 .8.9.8 1 .7 1 .7.9.7.9.6 1 .7.9.6 1 .6.9.5 1M343-709.9h0v.1h0v.1h.1v.1h0l.1.1h0v.1h.1v.1h0v.1h.1v.1h0v.1h.1v.1M67.6-489.3V-484.7M59.6-479.5H59l-.3-.1-.2-.1h-.2l-.2-.1-.3-.1h-.2l-.2-.2h-.2l-.2-.1-.2-.1h-.2l-.2-.2h-.1l-.2-.2H56l-.2-.2h-.1l-.2-.2h-.1l-.2-.2-.1-.1-.2-.1-.1-.1-.2-.2h0l-.2-.2-.1-.1M116.6-750.4l-.3-.2-.4-.3-.3-.2-.4-.1-.4-.1-.5-.1h-1.9l-.6.2-.5.1-.6.2-.6.2-.7.3-.7.3-.6.3-.8.4-.7.4-.8.4-.7.5-.9.5-.8.6-.8.5-1 .7-.8.6-1 .7-1 .8-.9.7-1 .8"/><path d="M97-742.1l.5-.5.7-.5.6-.4.6-.4.6-.4.5-.4.6-.4.6-.3.5-.3.6-.3.5-.3.6-.2.5-.3.5-.2.5-.2.5-.2.5-.1.5-.2h.5l.4-.2h.5l.4-.1h2.5l.4.1M94-739.7h.1l.1-.2h.1l.1-.1.1-.1.1-.1h.1l.1-.2h0l.2-.1v-.1l.2-.1h0l.2-.2h0l.2-.1v-.1l.2-.1h0l.2-.2h0l.2-.1v-.1h.1l.1-.2h.1l.1-.1h.1l.1-.2h.1M92.5-738.5h0l.1-.1h.1v-.1h.1l.1-.1h0l.1-.1h.1v-.1h.1l.1-.1h0l.1-.1h.1v-.1h.1v-.1h.1l.1-.1h0l.1-.1h.1M65.7-484.4h-.4l-.3.2h-.4l-.3.2h-.4l-.3.2-.3.1-.2.2h-.3l-.2.2-.2.2-.3.1-.1.2-.2.1-.2.2-.1.2-.2.2v.2l-.2.2v.2l-.1.2v.4l-.1.2v.8l.1.2v.3l.1.2M304.9-717.3l1.4 1 1.5.8 1.4.7 1.3.7 1.3.6 1.2.5 1.2.5 1.1.4 1.1.4 1 .2 1 .2 1 .1H321.7l.7-.2.7-.2.6-.3.5-.4.5-.4.5-.5.4-.6.3-.6.4-.8.2-.8.2-.8.1-1 .1-1v-2.2M112.2-743h-.3l-.3.2h-.3l-.3.2h-.3l-.4.2-.3.1-.3.1-.3.2-.3.1-.3.1-.4.2-.3.2-.3.1-.3.2-.4.2-.3.1-.3.2-.4.2-.3.2-.4.2-.3.2-.4.3-.3.2-.4.2-.3.3-.4.2-.4.3-.3.2-.4.3M102.2-737.8h-.1l-.2.2h-.1l-.2.2-.1.1-.2.1-.2.1-.1.1-.2.2h-.1l-.2.2-.1.1-.2.1-.1.1-.2.2h-.1l-.2.2-.2.1-.1.2H99l-.1.2-.2.1-.2.2-.1.1-.2.1-.1.2-.2.1-.2.1-.1.2M97.5-734.2l-.6.5-.6.4-.5.4-.6.5-.6.4-.5.5-.6.4-.6.4-.5.5-.6.4-.5.5-.5.4-.6.4-.5.5-.5.4-.5.5-.5.4-.6.5-.5.4-.5.4-.4.5-.5.4-.5.5-.5.4-.5.4-.4.5-.5.4-.5.5-.4.4-.5.4M82-721v3.2l.2 1 .2.8.3.8.3.7.3.7.4.6.5.5.5.4.6.4.6.3.7.2.7.2H90.7l1-.3 1-.2 1-.4 1.2-.4 1.1-.5 1.3-.5 1.2-.6 1.4-.7 1.4-.8 1.4-.8 1.5-.9M95.2-437.1l.4.2.3.1.3.2.4.2.3.1.3.2.4.2.3.1.4.1.3.2.4.1.4.1.3.1.4.2h.4l.4.1.3.1.4.1.4.1h.4l.4.1h.4l.4.1h.4l.4.1h.8l.4.1h.5M108-434.2l-.1.3v.4l-.1.4v.3l-.1.4v.4l-.1.4v.3l-.1.4v.8l-.1.4v.7l-.1.4v.8l-.1.4v1.6l-.1.4v2l-.1.4v.4M90.7-445.4l.1.1v.1l.1.1h.1v.2h.1v.2h.2v.2l.1.1.1.1h0l.1.2h0l.2.1v.2l.1.1h.1v.2h.1v.1l.1.1.1.1v.1h.1l.1.2h0l.1.1M216.8-154h0v.2h0v.1h0v.2h0v.2h0v.1h0v.2h0v.1h0v.2h0v.2h0v.1h0v.2M216.8-152.2v4.1l-.1 1.3v4l-.1 1.4v2.6l-.1 1.3v2.7l-.1 1.3v1.3l-.1 1.3v1.3l-.1 1.3v1.3l-.1 1.3v1.3l-.1 1.3v1.3l-.1 1.3v1.3l-.1 1.2-.1 1.3v1.3l-.1 1.3-.1 1.2"/><path d="M215.5-112.8l.2-2 .1-1.8.2-2 .1-1.8.2-2 .1-1.8.2-2 .1-1.9.1-1.9.2-1.9v-2l.2-1.9.1-1.9.2-2v-1.9l.2-2v-1.9l.2-2v-1.9l.2-2v-2l.2-1.9v-2l.2-2v-2l.1-1.9v-2l.2-2v-2l.1-2M218.9-230.5v-1.1l-.1-.4v-.3l-.1-.3v-.3l-.2-.3v-.3l-.2-.3-.1-.2-.1-.3-.2-.2-.1-.2-.2-.3-.2-.2-.2-.1-.2-.2-.2-.2-.2-.1-.2-.1-.3-.2h-.2l-.3-.1-.3-.1h-.3l-.3-.1h-.3l-.3-.1h-.4M195.3-236.5H194.4l-.3.1h-.3l-.3.1-.3.1-.2.1-.3.2h-.2l-.2.2-.3.2-.2.2-.1.1-.2.2-.2.2-.1.3-.2.2-.1.2-.1.3-.2.3v.3l-.1.3-.1.3v.3l-.1.3v.4l-.1.4v.7M190.2-171.2v2l.1 2v2l.2 2v2l.1 2 .1 2v2l.2 1.9v2l.2 2v1.9l.2 2 .1 1.9.1 2 .1 1.9.1 2 .2 1.8v2l.2 1.9.1 2 .2 1.8.1 2 .2 1.9.1 1.9.1 1.9.2 1.9.1 1.9.2 1.9.2 1.8"/><path d="M193.6-112.8l-.1-1.3v-1.3l-.1-1.3v-1.2l-.2-1.3v-2.6l-.1-1.3v-1.3l-.1-1.3v-1.3l-.1-1.3v-1.3l-.1-1.3v-1.3l-.1-1.3v-2.6l-.1-1.4v-2.6l-.1-1.3v-2.7l-.1-1.3v-4.1l-.1-1.3v-1.3M192.3-152.2h0v-.1h0v-.2h0v-.1h0v-.2h0v-.2h0v-.1h0v-.2h0v-.1h0v-.2h0v-.2h0v-.2M192.3-170.4h0v-.2h0v-.2h0v-.1h0v-.2h0v-.1h0v-.2h0v-.1h0v-.1l-.1-.1v-.1h0V-172.2h0V-172.5h0v-.2h0M192.2-225.7v-1l.1-.3v-.3l.1-.3.1-.3.1-.3.1-.3.1-.2.1-.3.2-.2.1-.2.2-.2.1-.2.2-.2.2-.2.2-.1.2-.2.2-.1.3-.1.2-.1.3-.1.2-.1.3-.1h.3l.3-.1h1M211.7-231.3h1l.3.1.3.1h.2l.3.2h.3l.2.2h.2l.3.2.2.2.2.1.2.2.1.2.2.2.2.2.1.2.1.2.2.3v.2l.2.3v.3l.1.2.1.3v.4l.1.3v.7M216.9-172.6h0v.2h0V-172h0V-171.7h0V-171.4h0v.2h0v.2h0v.1h0v.2h0v.1h0v.2h0M192.3-170.4v2.5l.1.6v.6l.1.6v.6l.1.6v.6l.1.6v.6l.1.6v.6l.2.6v.5l.1.6v.6l.2.5v.6l.1.6.1.5.1.6.1.5.1.6.1.5.1.6.1.5.1.6.2.5M194.3-153v.2l.1.2v.2l.1.1.1.2v.1l.1.2.1.1.1.2h.1l.1.2.1.1.1.1.1.2h.2v.2h.2l.2.2h.1l.2.1.1.1h.2l.2.1.1.1h.2l.2.1h.2l.2.1h.4M211-149.8h.1l.2-.1h.2l.2-.1h.2l.2-.1h.2l.2-.1.1-.1h.2l.1-.2h.2l.1-.1.2-.1v-.1l.2-.1.1-.2h.1l.2-.2v-.1l.2-.2h0l.1-.2.1-.2v-.1l.1-.2.1-.1v-.2l.1-.2v-.2M214.8-153v-.5l.2-.6v-.5l.2-.6v-.5l.2-.5v-.6l.2-.6v-.5l.1-.6.1-.6.1-.5v-.6l.2-.6v-.5l.1-.6v-.6l.1-.6v-.6l.1-.6v-.6l.1-.6v-.6l.1-.6v-.6l.1-.6V-169.2l.1-.6v-.6M66-709.9l.7-1 .6-.9.6-.9.6-1 .7-.9.6-1 .7-.9.8-1 .7-.9.8-1 .8-.9.8-1 .8-1 .8-.9 1-1 .8-.9 1-1 .8-.9 1-1 1-1 1-.9 1-1 1-.9 1.1-1 1-1 1.2-.9 1.1-1 1.2-1 1.1-.9M322-253.9h-.2 0-.4l-.1-.1h0-.2v-.1h-.1l-.1-.1-.1-.1h-.1v-.2h-.2v-.1l-.1-.1v-.1l-.2-.1v-.1l-.1-.1v-.1l-.1-.2h-.1v-.2l-.2-.1V-256l-.1-.2M319.6-256.2l-.1-.1v-.2l-.1-.2v-.1l-.1-.2v-.1l-.1-.2v-.2l-.1-.1v-.2l-.1-.2V-258.3l-.1-.2V-259.1l-.1-.2V-261.5M318.7-261.7V-262.6l.1-.2v-.8l.1-.2v-.4l.1-.2v-.2l.1-.2V-265l.1-.2v-.2l.1-.2v-.1l.1-.2v-.2l.1-.1.1-.2v-.2l.1-.1v-.2l.2-.1v-.2M320-267.3V-267.6l.2-.1v-.2h.1v-.2l.2-.1v-.1l.1-.1.1-.2h0l.2-.1v-.1l.1-.1h.1l.1-.2h.2v-.2H321.8l.1-.1h.1l.2-.1H323l.2.1h.1l.1.1h.1l.1.1v.1h.2v.1l.1.1v.1h.2v.2h.1v.2h.1l.1.2v.1l.2.1v.2h0l.1.2.1.2v.1M324.9-267.3V-267l.1.2.1.1v.2l.1.2v.1l.1.2V-265.7l.1.2v.4l.1.2V-264.6l.1.2v1.2l.1.2v1.3M325.7-261.7v1.3l-.1.2v.5l-.1.2v.4l-.1.2v.4l-.1.2v.1l-.1.2v.2l-.1.2v.1l-.1.2v.2l-.1.1-.1.2v.1l-.1.2-.1.2v.1"/><path d="M324.5-256.2v.2l-.1.1-.1.1v.2l-.2.1v.1l-.1.2h-.1v.2h-.2v.2h-.1l-.1.2h-.1v.1l-.2.1h0l-.1.1-.1.1h-.1l-.1.1h-.1 0l-.2.1h0-.2v.1h-.2 0-.2M301.2-205v.2h0V-204.1h0v.8h-.1v.7h0v.2h0V-201.8h-.1v.2h0v.2M129.3-289.4h-3.7l-.8-.1h-.7l-.7-.1h-.8l-.7-.1h-.7l-.8-.1-.7-.1h-.8l-.7-.2h-.7l-.8-.1-.7-.1-.8-.1-.7-.1-.8-.1-.7-.1-.8-.2h-.7l-.8-.2-.7-.1-.8-.2-.7-.1-.8-.1M107-291.8h-.4l-.4-.2h-.5l-.4-.1-.4-.1-.4-.1-.4-.1-.4-.1-.5-.1-.4-.1-.4-.1-.4-.1-.4-.1-.4-.1-.5-.1-.4-.1-.4-.1-.4-.1-.4-.1-.5-.1-.4-.2h-.4l-.4-.2-.4-.1-.4-.1-.5-.1-.4-.1-.4-.2H95l-.4-.2M95.9-292.3h.3l.4.2.4.1.3.1.4.1.4.1.4.1.3.1h.4l.4.2h.3l.4.2h.4l.4.2h.3l.4.1.4.1.3.1.4.1h.4l.4.2h.3l.4.1.4.1h.3l.4.2h.4l.3.1.4.1h.4M222.7-231.5V-232.4l.1-.2v-.2l.1-.2v-.2l.1-.2.1-.1v-.2l.2-.1v-.2l.2-.1.1-.1.1-.2h.2l.1-.2h.2l.1-.2h.2l.1-.1h.2l.2-.1h.2l.2-.1h.7M260.4-235.2h.5l.6.2h.6l.5.2.5.1.5.2.5.2.4.2.5.3.4.3.4.3.4.3.3.3.3.4.4.3.2.4.3.5.3.4.2.5.2.5.2.5.2.5.1.6.1.6.1.6.1.6v.7l.1.7v1.4M269.4-212.6l-.2 4.4-.1 4.3-.2 4.3-.2 4.3-.2 4.2-.3 4.2-.3 4-.3 4.2-.3 4-.4 4-.4 4-.4 3.8-.4 3.8-.5 3.8-.5 3.8-.5 3.7-.5 3.7-.6 3.6-.6 3.6-.6 3.5-.6 3.5-.7 3.4-.7 3.4-.7 3.3-.8 3.3-.7 3.3-.8 3.2-.8 3.1-.9 3.1-.9 3.1M254.3-100.7l-.3 1.1-.4 1-.3 1.1-.5 1-.4 1-.4 1-.5 1-.5.8-.5 1-.6.8-.5.8-.6.8-.6.8-.7.8-.6.7-.7.7-.7.7-.7.7-.8.6-.7.7-.8.5-.8.6-.8.5-.9.6-.9.5-.9.4-.9.5-1 .4-1 .4-.9.3M234.3-78.9h0-.2v.1h-.2 0-.1l-.1.1h0-.2v.1h-.2 0-.1l-.1.1h0-.2 0l-.1.1h-.1 0-.2v.1h-.2M232.3-78.3l-.5.2-.6.1-.5.2-.5.1-.6.2-.5.1-.5.2-.6.1-.5.2h-.6l-.5.2-.5.1-.6.2h-.5l-.6.2-.5.1-.6.1-.5.1-.5.1-.6.1-.5.1-.6.1-.5.1-.6.1h-.5l-.5.2h-.6l-.5.1-.6.1h-.5M216-74.8h0H215.2l-.1.1H214.6h0-.2l-.2.1h0-.4 0-.4 0l-.2.1h-.2 0-.8 0M207-74.1h-.1 0-.1 0-.1 0-.1 0-.1 0-.1 0-.1 0-.1 0-.1 0-.1 0-.1 0-.1 0-.1 0-.1 0-.1 0M202.1-74.1h-2l-.2-.1h-1.4l-.2-.1h-1l-.2-.1M193-74.8l-.6-.1h-.5l-.6-.1-.5-.1-.6-.1h-.5l-.5-.2h-.6l-.5-.2h-.6l-.5-.2h-.5l-.6-.2h-.5l-.6-.2-.5-.1-.6-.1-.5-.2h-.5l-.6-.2-.5-.1-.5-.2-.6-.1-.5-.2-.6-.1-.5-.2-.5-.1-.6-.2-.5-.1M176.8-78.3h0-.2 0-.2 0l-.2-.1h0-.2v-.1h0-.2 0l-.2-.1h0-.2 0v-.1h-.2 0-.2v-.1h-.1 0M174.7-78.9l-1-.3-1-.4-1-.4-.9-.5-.9-.5-.8-.4-.9-.6-.8-.5-.8-.6-.8-.6-.8-.6-.7-.6-.7-.7-.7-.7-.7-.7-.7-.7-.6-.8-.6-.8-.6-.8-.6-.8-.5-.9-.5-.9-.5-.9-.5-1-.4-.9-.5-1-.4-1-.3-1-.4-1.1M154.8-100.7l-1-3-.8-3.2-.8-3.1-.8-3.2-.7-3.3-.8-3.3-.7-3.3-.7-3.4-.7-3.4-.6-3.5-.6-3.5-.6-3.6-.6-3.6-.5-3.7-.5-3.7-.5-3.8-.5-3.8-.4-3.8-.4-3.9-.4-4-.4-3.9-.3-4-.3-4.1-.3-4.1-.3-4.2-.2-4.2-.2-4.3-.2-4.3-.2-4.3M139.7-223.4V-225.5l.2-.7v-.6l.1-.6.2-.6.1-.5.2-.6.2-.5.2-.5.2-.5.3-.4.2-.5.3-.4.3-.3.4-.4.3-.3.4-.3.4-.3.4-.3.4-.3.5-.2.5-.2.4-.2.6-.1.5-.1.6-.1.5-.1M182.8-235.2H183.7l.2.1h.2l.1.1h.2l.2.2h.2l.1.1.2.1.1.1.1.1.2.2h0l.2.2v.2l.2.1v.2l.1.1.1.2v.2l.1.2v.4l.1.2v.4M186.4-170v3.3l.2 3.4.1 3.3.2 3.3.1 3.2.2 3.3.1 3.3.2 3.2.2 3.3.2 3.2.2 3.2.1 3.2.2 3.2.3 3.2.2 3.2.2 3.2.2 3.1.3 3.2.2 3.1.3 3.1.2 3.1.3 3.1.3 3.1.2 3.1.3 3 .3 3.1.3 3 .3 3.1.3 3M129-92.2h0v-.1h0M129-92.4h0v-.1h0v-.1h0v-.1h0-.1M98.6-37h0v-.1h0-.1 0M98.5-37.1h-.2l-.1-.1h-.1l-.2-.1h-.1l-.2-.1h-.1l-.1-.1h-.2l-.1-.1-.2-.1h-.1l-.1-.1h-.2l-.1-.1h-.2l-.1-.1H96l-.2-.1h-.1l-.2-.1h-.1l-.1-.1H95l-.1-.1h-.2l-.1-.1h-.1l-.2-.1h-.1M94.3-38.7h0-.2 0v-.1h-.2 0l-.1-.1h-.1 0l-.1-.1h0-.2 0v-.1h-.2v-.1H93h0l-.1-.1h-.1 0l-.1-.1h0-.2 0v-.1h-.2M92.3-39.6l-1.1-.4-1.1-.5L89-41l-1.1-.5-1-.6-1.1-.5-1-.5-1-.6-1-.5-1-.6-1-.5-1-.6-.9-.6-.9-.6-.9-.6-.8-.6-.9-.6-.8-.6-.8-.6-.8-.6-.8-.7-.7-.6-.8-.7-.7-.6-.7-.7-.7-.7-.6-.7-.7-.6-.6-.7-.6-.7M66.1-57.4h0-.1l-.1-.1h-.1 0-.2 0-.1 0l-.2-.1h0-.2 0H64.7h0-.2 0-.2 0-.1 0-.2 0-.1 0-.1M62-60.3l-.4-.5-.4-.5-.3-.5-.4-.6-.3-.5-.4-.5-.3-.6-.4-.5-.3-.6-.4-.6-.4-.5-.3-.6-.4-.6-.4-.7-.3-.6-.4-.6-.4-.7-.4-.6-.3-.7-.4-.6-.4-.7-.4-.7-.4-.7-.4-.7-.3-.7-.4-.7-.4-.8-.4-.7-.4-.8-.4-.7M50.8-79.1l-.7-1.5-.7-1.4-.7-1.4-.6-1.4-.7-1.4-.7-1.4L46-89l-.6-1.3-.7-1.4-.6-1.3-.7-1.3-.7-1.3-.6-1.3-.7-1.3-.6-1.2-.6-1.3-.7-1.2-.6-1.2-.7-1.2-.6-1.2-.6-1.2-.7-1.1-.6-1.2-.6-1.1-.6-1.1-.6-1.1-.7-1.1-.6-1-.6-1.2M85.6-38.2l.2.2.3.2.3.1.3.2.2.1.3.2.3.2.3.1.3.2.3.1.2.2.3.1.3.2.3.1.3.2.3.1.3.2.3.1.3.2.3.1.3.2.3.1.3.2h.3l.3.2.3.2.3.1.3.1.3.2.3.1M94.3-33.7l2.6 1 2.6 1 2.6.9 2.6.9 2.6.9 2.6.9 2.6.8 2.6.8 2.6.8 2.6.8 2.6.7 2.6.7 2.6.7 2.6.7 2.6.7 2.6.6 2.6.6 2.6.6 2.6.6 2.6.5 2.6.5 2.6.5 2.6.4 2.6.5 2.6.4 2.7.4 2.6.4 2.6.3 2.6.3M108-434.2H109v-.1h.2M109.3-434.3l3-.1 2.8-.2h3l2.8-.2 2.9-.1 2.9-.1 2.9-.1 2.9-.1 2.9-.1 2.9-.1 2.8-.1 3-.1h2.8l3-.2h2.8l2.9-.1h2.9l2.9-.1 2.9-.1h2.9l2.9-.1h2.8l3-.1h5.8l2.8-.1h11.6M213-436.5h8.7l2.8.1h5.8l2.9.1h2.9l2.9.1h2.9l2.9.1h2.9l2.9.1h2.8l3 .2h2.8l3 .1 2.8.1h3l2.8.2h2.9l2.9.2h2.9l2.9.2h2.9l2.9.2 2.8.1 3 .1 2.8.2h3M313.9-437.1l-.4.2-.3.1-.3.2-.4.2-.3.1-.4.2-.3.2-.4.1-.3.1-.4.2-.3.1-.4.1-.4.1-.3.2h-.4l-.4.1-.4.1-.4.1-.3.1h-.4l-.4.1h-.4l-.4.1h-.4l-.4.1h-.9l-.4.1h-.8M301.2-434.2v.7l.1.4v.3l.1.4v.8l.1.3v.4l.1.4v.8l.1.4v.7l.1.4v.8l.1.4V-425.8l.1.4v2l.1.4v.4M302.1-291.8h.4l.4-.2h.5l.4-.1.4-.1.4-.1.4-.1.4-.1.4-.1.5-.1.4-.1.4-.1.4-.1.4-.1.4-.1.4-.1.5-.1.4-.1.4-.1.4-.1.4-.2h.4l.4-.2.5-.1.4-.1.4-.1.4-.1.4-.2h.4l.4-.2M343.3-484.4h.4l.4.2h.3l.4.2h.3l.3.2.3.1.2.2h.3l.2.2.3.2.2.1.2.2.1.1.2.2.2.2v.2l.2.2.1.2v.2l.1.2.1.2v1.4l-.1.3v.2M349.5-479.5h.5l.2-.1.3-.1h.2l.2-.1.2-.1h.2l.2-.2h.3l.2-.1.2-.1h.1l.2-.2h.2l.2-.2h.2l.1-.2h.2l.2-.2h.1l.2-.2.1-.1.1-.1.2-.1.1-.2h.1l.2-.2v-.1l.2-.2M66-699.3l-.3.5-.2.6-.2.5-.2.6-.2.5-.1.5-.2.6-.1.5-.2.5v.6l-.2.5-.1.5-.1.6-.1.5v.5l-.1.5-.1.6v1l-.1.6v3.1l.1.6v.5l.2.5v.6M345.2-683.4l.1-.5v-.5l.1-.5.1-.6v-5.3l-.2-.5v-.5l-.1-.6-.1-.5-.1-.5-.1-.5-.2-.6-.1-.5-.1-.5-.2-.6-.2-.5-.2-.6-.1-.5-.2-.5-.3-.6-.2-.5"/><path d="M343.1-699.3l-.5.6-.6.5-.7.5-.6.4-.7.4-.7.3-.7.3-.7.2-.8.2-.8.1-.8.1h-2.7l-.8-.1-1-.2-1-.2-1-.2-1-.3-1-.3-1.1-.4-1.1-.4-1.2-.5-1.1-.5-1.2-.6-1.2-.6-1.2-.7-1.3-.7-1.3-.8M71.6-88.4l.1.4.2.4.1.5.2.4.1.4.1.5.2.4.1.4.2.4.1.5.2.4.1.4.2.4.1.4.1.5.2.4.1.4.2.4.1.4.2.4.1.4.2.5.1.4.2.4.1.4.2.4.1.4.2.4.1.4.2.4M76-75.9l.5 1.1.5 1.1.5 1.1.6 1.1.5 1.1.6 1 .6 1.2.7 1 .6 1 .7 1 .7 1.1.7 1 .7 1 .8 1 .7 1 .8 1 .8 1 .8 1 .9.9.8.9 1 1 .8.8 1 1 .9.8 1 1 1 .8 1 .9 1 .8 1 .9M99.3-46.5l1.6 1 1.7 1.1 1.7 1 1.7 1 1.8 1 1.7 1 1.8 1 1.8 1 1.9.9 1.8.9 2 .9 1.8.9 2 .8 1.9.9 2 .8 2 .9 2 .8 2 .8 2 .8 2.1.7 2.1.8 2.1.7 2.2.8 2.2.7 2.1.7 2.3.7 2.2.6 2.3.7 2.2.6 2.3.6M158.6-21.4l.5.1h.5l.4.2h.5l.4.1h.5l.4.1.5.1h.5l.4.1.5.1h.4l.5.1h.5l.4.1.5.1h.4l.5.1h.5l.4.1.5.1h.4l.5.1h.5l.4.1h.5l.4.1h.5l.4.1h.5M180-18.8H180.8l.1.1H182l.1.1H183M183-18.5H184.3l.6.1H186.2l.6.1h.7l.6.1H189.4l.6.1h1.9l.7.1h1.9l.6.1H197.7l.6.1H202M207-17.7h3.1l.7-.1h3.2l.6-.1h1.9l.6-.1H218.4l.6-.1H220.3l.7-.1h1.2l.7-.1h.6l.6-.1H225.4l.6-.1M226-18.5H226.8l.1-.1H228l.1-.1H229M236.7-19.5h.4l.5-.1h.4l.5-.1h.5l.4-.1h.5l.4-.1.5-.1h.4l.5-.1h.5l.4-.1h.5l.4-.2h1l.4-.1.5-.1h.4l.5-.1.5-.1h.4l.5-.1.4-.1h.5l.4-.1.5-.1h.5l.4-.2M236.7-14.5h-.6l-.2.1h-.8l-.2.1h-.8l-.2.1h-.8l-.3.1h-.7l-.3.1h-1l-.2.1h-.8l-.2.1h-.5M226-13.5h-1.9l-.6.1h-.6l-.7.1H221l-.7.1H219l-.6.1h-1.9l-.6.1H214l-.7.1H209.5l-.6.1H206.9M202.1-12.8h-5.7l-.7-.1h-2.5l-.6-.1H190.6l-.6-.1H188.7l-.6-.1H186.8l-.6-.1h-.6l-.7-.1h-1.2l-.7-.1M71-90.2l-.8-.4-.9-.4-.8-.5-.8-.4-.9-.5-.8-.4-.8-.5-.8-.5-.8-.4-.8-.5-.8-.6-.7-.5-.8-.5-.7-.5-.8-.6-.7-.5-.7-.6-.7-.6-.7-.6-.7-.6-.7-.6-.7-.6-.6-.6-.7-.7-.6-.6-.6-.7-.7-.7-.6-.7-.6-.6-.6-.7M49.1-106.8l-.2-.4-.3-.3-.3-.2-.2-.3-.3-.2-.2-.2-.2-.2-.2-.1-.2-.2H47l-.2-.2H46.4v-.1h-.2 0-.1v.1l-.1.1V-108.7l-.1.1V-108l.1.3v.2l.1.3.1.3M46.3-106.5h0v.2h0l.1.1h0v.1h0v.2h.1v.1h0v.2h.1v.2h0l.1.2h0v.1h0l.1.1v.1h0v.2h.1v.1M47.2-104l1.3 3.3 1.3 3.2 1.4 3 1.3 3 1.4 3 1.5 3 1.4 2.7 1.5 2.8 1.5 2.7 1.6 2.6 1.6 2.5 1.6 2.5 1.6 2.4L68-65l1.7 2.3 1.7 2.2 1.8 2 1.7 2.1 1.8 2 1.9 2 1.9 1.8 1.9 1.8 1.9 1.7 2 1.6 2 1.6 2 1.5 2 1.4 2 1.3 2.2 1.3 2 1.3M102.2-35.8l1.6.6 1.6.6 1.6.5 1.7.5 1.6.6 1.6.5 1.6.5 1.6.5 1.6.5 1.7.5 1.6.5 1.6.5 1.6.4 1.7.5 1.6.4 1.6.4 1.6.5 1.7.4 1.6.4 1.6.4 1.6.4 1.7.3 1.6.4 1.6.4 1.6.3 1.7.4 1.6.3 1.6.3 1.6.3 1.7.3M92.3-39.6h-.2l-.2-.2h-.3l-.2-.2-.2-.1-.3-.1-.2-.1-.2-.2h-.2l-.3-.2-.2-.1-.2-.1-.3-.2h-.2l-.2-.2-.2-.1-.3-.1-.2-.2H88l-.2-.2-.3-.1-.2-.1-.2-.2h-.2l-.2-.2-.3-.1-.2-.2H86l-.2-.2-.2-.1M85.6-43.1l-.4-.2-.3-.3-.4-.2-.3-.2-.4-.2-.3-.3-.4-.2-.3-.3-.4-.2-.3-.3-.4-.3-.4-.3-.3-.3-.4-.3-.3-.3-.4-.3-.4-.3-.3-.3-.4-.3-.4-.4-.3-.3-.4-.4-.4-.3-.4-.4-.3-.4-.4-.4-.4-.3-.4-.4-.4-.4M74.6-52.3l-.3-.3-.3-.3-.3-.3-.3-.2-.4-.3-.3-.2-.3-.2-.3-.3-.3-.2-.3-.2-.3-.2-.3-.2-.3-.2-.3-.2-.2-.2-.3-.1-.3-.2-.3-.1-.3-.2-.2-.1-.3-.1-.3-.2H68l-.3-.2h-.2l-.3-.2h-.3l-.2-.1h-.2l-.3-.1M349.6-505.6l-.4.4-.4.4-.4.4-.3.4-.4.4-.3.5-.4.4-.3.4-.3.4-.4.4-.3.4-.3.4-.3.5-.3.4-.3.4-.3.4-.2.5-.3.4-.3.4-.2.5-.3.4-.2.4-.2.5-.2.4-.3.5-.2.4-.2.5-.2.4-.2.5M335-509l-.6 2-.7 2.2-.6 2-.7 2-.7 2-.7 2-.7 2-.7 2-.7 2-.7 1.8-.7 1.9-.8 1.8-.7 1.9-.7 1.8-.8 1.7-.7 1.8-.7 1.7-.8 1.7-.7 1.7-.8 1.7-.8 1.6-.7 1.6-.8 1.6-.8 1.5-.8 1.6-.8 1.5-.7 1.5-.8 1.4-.8 1.4-.9 1.5M313-456.1h0-.1v.2h-.1 0v.2h-.1v.1h0l-.1.1v.1h-.1v.2h-.1v.1l-.1.1h0v.1l-.1.1h0l-.1.1v.1h0l-.1.2h0-.1v.2h-.1M311.7-454l-.4.5-.4.6-.4.5-.4.5-.4.6-.4.4-.5.5-.4.5-.5.4-.5.4-.5.4-.5.4-.5.3-.5.4-.5.3-.6.3-.5.3-.6.2-.6.3-.6.2-.6.2-.6.2-.6.2-.6.2-.6.1-.7.1-.6.1-.7.1h-.7l-.7.1M295.5-444.7l-3-.1-2.9-.1-3-.2h-2.9l-3-.2-2.9-.1-3-.1-2.9-.1h-3l-2.9-.2h-3l-3-.2h-2.9l-3-.1h-2.9l-3-.1-2.9-.1h-3l-2.9-.1h-3l-2.9-.1h-5.9l-3-.1h-8.8l-3-.1H207M202.1-446.7h-17.7l-3 .1h-5.9l-3 .1h-2.9l-3 .1h-2.9l-3 .2h-5.9l-2.9.2h-3l-2.9.1-3 .1-2.9.1-3 .1-2.9.1-3 .1-2.9.1-3 .1-2.9.1-3 .2h-2.9l-3 .2M113.5-444.7h-.7l-.7-.1h-.7l-.6-.2-.7-.1-.6-.1-.7-.2-.6-.2-.6-.2-.6-.2-.6-.2-.5-.2-.6-.3-.5-.3-.6-.3-.5-.3-.5-.4-.6-.3-.5-.4-.4-.4-.5-.4-.5-.4-.4-.5-.5-.5-.4-.4-.5-.6-.4-.5-.4-.5-.4-.6-.4-.6M97.3-454.1h0v-.1l-.1-.1h0v-.1l-.1-.1h0l-.1-.1v-.1h0l-.1-.2h0-.1v-.2h0-.1v-.2h-.1 0v-.2h-.1v-.1h-.1v-.2h-.1v-.1l-.1-.1h0v-.1M96.1-456.1l-.8-1.5-.8-1.4-.8-1.5-.8-1.4-.8-1.5-.7-1.6-.8-1.5-.8-1.6-.8-1.6-.7-1.6-.8-1.7-.7-1.7-.8-1.7-.7-1.7-.8-1.8-.7-1.7-.7-1.8-.8-1.9-.7-1.8-.7-1.9-.7-1.9-.7-1.9-.7-2-.7-2-.7-2-.7-2-.7-2-.7-2-.6-2.1-.7-2.2M74-509h0l-.1.2-.1.1v.1l-.2.1V-508.2h-.2v.2l-.1.1v.1l-.1.1-.1.2h0l-.1.2-.1.1v.1l-.1.2h-.1v.2l-.1.1-.1.1v.1l-.1.2h-.1v.2l-.1.1-.1.1v.2H72M72-505.5l-.2.4-.2.3-.2.4-.2.4-.2.4-.1.4-.2.4-.2.4-.1.4-.2.4-.1.4-.2.4-.1.4-.1.4-.2.4-.1.5-.1.4-.1.4-.2.5v.4l-.2.5v.4l-.2.5v.4l-.2.5v.4l-.2.5v.5l-.1.5v.4M68-492.8v.2h0v.2h0v.2l-.1.1v.5h0l-.1.2v.5h0l-.1.2v.5h0V-489.8l-.1.1v.2h0V-489.2M72-478.8h0v.2h0l.1.1v.1h0l.1.1h0v.2h.1v.2h.1v.1h0v.1l.1.1h0v.1l.1.1h0v.1h.1v.2h0l.1.1M76.2-469.8l.1.2.1.2.1.1v.2l.2.2v.2l.2.1v.2l.1.2.1.2.1.1.1.2v.2l.2.1v.2l.2.2v.2l.1.1.1.2.1.2.1.1.1.2v.2l.2.2v.1l.2.2v.2l.1.1.1.2M79-464.6v.2l.2.3.1.2.2.3.1.2.1.3.2.2.1.3.2.2v.3l.2.2.2.3.1.2.1.3.2.2.1.3.2.2v.3l.2.2.2.3.1.2.2.2v.3l.2.2.2.3.1.2.2.3.1.2.1.3M83-457.2l.3.4.3.4.2.4.3.4.2.4.3.5.2.4.3.4.2.4.3.4.2.4.3.4.2.4.3.4.2.4.3.4.3.3.2.4.3.4.2.4.3.4.3.4.2.4.3.4.2.3.3.4.3.4.2.4.3.4M90.7-445.4l.2.2.2.3.1.2.2.2.2.2.2.2.1.2.2.2.2.2.2.2.1.2.2.2.2.1.2.2.2.2.2.2.1.1.2.2.2.2.2.1.2.2.2.2.2.1.2.2.2.1.2.2.2.1.2.2h.2M96.3-440l.3.2.4.2.3.2.4.2.3.2.4.2.3.1.4.2.4.2.4.1.3.2.4.1.4.1.4.2h.4l.4.2h.4l.4.2h.4l.4.1.4.1h.4l.5.1h.4l.4.1h.9l.4.1H108.6M108.7-436.7H110.9M111-436.8l3-.1 3-.2 3.1-.1 3-.1 3-.1 3.1-.2h3l3.1-.2h3l3-.2h3.1l3-.2h3l3.1-.1 3-.1h3.1l3-.1 3-.1h3.1l3-.1h3l3.1-.1h9.1l3-.1h9.1M207-439H219l3 .1h6.1l3 .1h6.1l3 .1 3.1.1h3l3 .1 3.1.1h3l3 .2h3.1l3 .1 3.1.1 3 .1 3 .1 3.1.1 3 .1 3 .2h3.1l3 .2 3 .1 3.1.2M298-436.8h2l.1.1h.2M300.4-436.7h2.8l.4-.1h.4l.4-.1h.4l.5-.2h.4l.4-.1.4-.1.4-.1.4-.1.4-.1.4-.2.4-.1.3-.1.4-.2.4-.1.4-.2.3-.2.4-.2.3-.1.4-.2.4-.2.3-.2.3-.3.4-.2M312.8-440l.2-.2.2-.1.2-.2.2-.1.2-.2.2-.1.2-.2.2-.1.2-.2.2-.2.2-.1.1-.2.2-.2.2-.1.2-.2.2-.2.2-.2.1-.1.2-.2.2-.2.2-.2.1-.2.2-.2.2-.2.2-.2.1-.2.2-.2.2-.2.1-.2.2-.3M318.3-445.4l.2-.3.3-.4.3-.4.2-.4.3-.4.3-.3.2-.4.3-.4.3-.4.2-.4.3-.4.2-.4.3-.4.3-.3.2-.4.3-.4.2-.4.3-.4.2-.4.3-.4.2-.4.3-.4.2-.4.3-.4.2-.5.3-.4.2-.4.3-.4.2-.4.3-.4M326-457.2l.1-.3.2-.2.1-.2.2-.3v-.2l.2-.3.2-.2.1-.3.2-.2v-.3l.2-.2.2-.2.1-.3.1-.2.2-.3.1-.2.2-.3v-.2l.2-.3.2-.2.1-.3.1-.2.2-.3.1-.2.1-.3.2-.2.1-.3.1-.2.2-.3.1-.2M330.1-464.6l.1-.2.1-.2v-.1l.2-.2v-.2l.2-.1v-.2l.2-.2v-.2l.1-.1.1-.2.1-.2.1-.1.1-.2v-.2l.2-.2v-.1l.2-.2v-.2l.1-.1.1-.2.1-.2.1-.2.1-.1v-.2l.2-.2v-.2l.2-.1v-.2l.1-.2M336.2-476.9h0v-.1h.1v-.2h.1v-.2h0l.1-.1h0v-.2h.1v-.2h.1v-.1h0v-.2h.1v-.2h.1v-.1h0v-.2h.1M339.7-485v-.2l.2-.1V-485.6l.1-.2h.1v-.2l.1-.2v-.1l.1-.1v-.2l.2-.1V-487l.1-.1v-.2l.1-.1.1-.2v-.1l.1-.1v-.2l.1-.1v-.2l.1-.1v-.2l.1-.1.1-.1v-.2l.1-.1v-.2M341.5-489.3v-.5h0V-490.2l-.1-.1v-.2h0v-.7h-.1v-.8h-.1v-.5l-.1-.1V-492.8M341-492.8v-.9l-.2-.5v-.5l-.1-.4-.1-.5-.1-.4-.1-.5-.1-.4-.2-.5v-.4l-.2-.5-.1-.4-.1-.4-.2-.5-.1-.4-.1-.4-.2-.4-.1-.4-.2-.4-.1-.4-.2-.4-.1-.4-.2-.4-.2-.4-.2-.4-.1-.4-.2-.4-.2-.4-.2-.3M337-505.5V-505.8h-.1v-.2l-.1-.1-.1-.1v-.2h-.1l-.1-.2v-.1l-.1-.1-.1-.1v-.2h-.1l-.1-.2v-.1l-.1-.1-.1-.2h0l-.1-.2-.1-.1v-.1l-.1-.1-.1-.2h0l-.1-.2-.1-.1v-.1l-.2-.1v-.2M333.6-511.6l-.7 2.2-.7 2.2-.7 2-.7 2.2-.7 2-.7 2.1-.7 2-.7 2-.7 2-.8 2-.7 1.9-.7 1.9-.8 1.9-.7 1.8-.8 1.8-.7 1.8-.8 1.8-.7 1.8-.8 1.7-.8 1.7-.8 1.6-.7 1.7-.8 1.6-.8 1.6-.8 1.6-.8 1.5-.8 1.5-.8 1.5-.9 1.5-.8 1.4"/><path d="M309.9-455.3l-.4.5-.3.5-.4.5-.3.5-.4.4-.4.5-.4.4-.4.4-.4.4-.5.3-.4.4-.4.3-.5.3-.5.3-.4.3-.5.3-.5.3-.5.2-.5.2-.5.2-.5.2-.6.2-.5.2h-.6l-.5.2-.6.1-.6.1-.6.1h-.6l-.6.1M295.5-446.9l-3-.1-2.9-.1-3-.2h-2.9l-3-.2-2.9-.1-3-.1-2.9-.1-3-.1-2.9-.1h-3l-3-.2h-2.9l-3-.1h-2.9l-3-.2h-5.9l-2.9-.1h-3l-2.9-.1h-3l-2.9-.1h-8.9l-2.9-.1H207M202.1-449h-5.9l-3 .1h-8.8l-3 .1h-5.9l-3 .1h-2.9l-3 .1h-2.9l-3 .1-2.9.1h-3l-2.9.2h-3l-2.9.1-3 .1h-2.9l-3 .2h-2.9l-3 .2-2.9.1-3 .1-2.9.1-3 .2h-2.9l-3 .2M113.5-446.9h-.7l-.6-.1h-.5l-.6-.2h-.6l-.6-.2-.5-.2-.6-.1-.5-.2-.5-.2-.5-.2-.5-.2-.5-.2-.5-.3-.5-.3-.5-.3-.4-.3-.5-.3-.4-.3-.5-.4-.4-.3-.4-.4-.4-.4-.4-.4-.4-.5-.4-.4-.4-.5-.3-.5-.4-.5-.3-.5M98-457.3l-.8-1.4-.8-1.5-.8-1.5-.8-1.5-.8-1.5-.8-1.6-.8-1.6-.8-1.6-.8-1.6-.8-1.7-.7-1.7-.8-1.7-.8-1.8-.7-1.8-.8-1.8-.7-1.8-.8-1.8-.7-1.9-.8-1.9-.7-2-.7-1.9-.7-2-.7-2-.7-2-.8-2-.6-2.1-.7-2.1-.7-2.1-.7-2.2-.7-2.2M333.6-511.6l-.1-.1-.1-.2-.1-.1-.1-.2-.1-.2-.1-.1-.1-.2-.1-.1-.1-.2-.1-.1-.1-.2-.1-.1-.1-.2-.1-.2v-.1l-.2-.2v-.1l-.2-.2v-.1l-.2-.2v-.1l-.2-.2v-.1l-.2-.2v-.2l-.2-.1v-.2l-.2-.1v-.2l-.2-.1M330.6-516.2l-.5-.9-.6-.8-.5-.9-.6-.9-.6-.8-.5-.9-.6-.8-.6-.9-.6-.8-.6-.8-.6-.9-.6-.8-.6-.8-.6-.9-.6-.8-.6-.8-.6-.8-.6-.8-.6-.8-.7-.8-.6-.9-.6-.8-.6-.8-.7-.8-.6-.8-.7-.7-.6-.8-.7-.8-.6-.8M199.5-762.5h0v.1h0v.1h0v.1h0v.1h0v.1h.1M200.2-761.2h.2M207.7-763.5h0-.1 0v-.1h0-.1 0M205.3-759.1h0-.1 0M204.7-757.7h.5v-.1H205.5v-.1h.1M205.7-758h.2v-.1h.1v-.1h.1v-.1h.1v-.1h.1v-.1h.1v-.1h0v-.1M203.3-759h0v.1h.1v.1h0M204.4-758h0-.1 0-.1 0-.1 0-.1 0-.1 0-.1 0l-.1-.1h0-.1 0-.1 0l-.1-.1h0M203.4-758.2h0-.1 0v-.1h0-.1 0M203.2-758.3h0-.1 0v-.1h0M203.2-757.9h0v.1h.1M203.3-757.8h0M203.8-757.9H204.1v.1h.1M204.3-757.8h.4M206.7-757.6h0v-.1h.1v-.1h.1v-.1h.1v-.1h0M207-758h0l.1-.1h0l.1-.1h.1v-.1h0l.1-.1h0l.1-.1h0v-.1h.1l.1-.1.2-.2.4-.4h0M208.4-759.5h.1v-.1h.1v-.1h.1v-.1h.1v-.1l.1-.1h.1v-.1h.1l.1-.2h0l.1-.1h.1l.1-.2h0l.2-.1v-.1l.2-.1v-.1l.1-.1M210-761.1h.1v-.1h0v-.1h.1v-.1h.1v-.1h0M210.5-763.3h0v-.1h0v-.1h-.1 0v-.1h-.1 0v-.1h0-.1v-.1h0-.1v-.1h0-.1v-.1h-.1 0v-.1h-.1 0-.1v-.1h0-.1M208.6-764.7h0-.1 0-.1 0v-.1h-.1 0-.1 0-.1 0l-.1-.1h0-.1 0-.1 0-.1 0M207.6-765h0-.2 0-.1l-.1-.1h0-.1 0-.1 0-.2 0l-.1-.1h0-.2 0-.1 0-.1 0-.1 0l-.1-.1h-.1 0-.1M203-765.3h0-.2 0-.1 0l-.1.1h0-.1 0-.1 0-.1 0-.1 0l-.1.1h0-.1 0-.1 0-.1 0-.1 0l-.1.1h0M201.5-765h0-.1 0-.1 0l-.1.1h0-.1 0-.1 0l-.1.1h0-.1 0-.1 0l-.1.1h0-.1 0-.1v.1h0-.1 0-.1v.1M199.5-764.1h0-.1 0-.1v.1h0-.1 0v.1h0-.1 0v.1h0-.1 0M198.5-762.8h0v.1h0v.1h0v.1h0v.1h0v.1h0v.1h0v.1h.1v.1h0v.1h.1v.1h0M198.8-761.7h0v.1h0v.1h.1v.1h.1v.1h0M199-761.3h.1v.1h0v.1h.1v.1h.1v.1h.1M199.4-760.8h.1v.1h.1v.1h.1v.1h.1v.1h.1v.1h.1v.1h0M203.4-756.9h0l.2.1h.2v.1h.4v.1h1M206.3-757.3h.1v-.1h.1v-.1h.1v-.1h0M207.3-755.5h.1l.1-.1h.2v-.1h.1l.1-.1h0l.2-.1h.1l.1-.1h0l.2-.1h0l.1-.1h0l.2-.1h0l.1-.1h0l.1-.1.1-.1h0l.2-.1h0v-.1h.2v-.2M209.6-757h0l.1-.1h0l.1-.2h.1l.1-.2h0l.1-.1h0l.1-.1.1-.1h0l.1-.2h0l.1-.1h0l.1-.1v-.1l.1-.1h0v-.2h.1v-.1h.1v-.2h.1v-.2M211.1-759.2h0v-.2h.1v-.2l.1-.1v-.2h0l.1-.2h0v-.2h0v-.1l.1-.1V-760.8h0v-.2h0v-.2h.1v-.2h0v-.6h0v-.2h0v-.2h0V-762.7h0v-.2h0v-.2l-.1-.1v-.1h0v-.2h0l-.1-.1v-.2h0l-.1-.2h0v-.2l-.1-.1h0v-.2M211-764.5v-.2h0v-.2h-.1v-.1l-.1-.1h0v-.2h-.1v-.1h-.1v-.2h-.1v-.1h-.1v-.1l-.1-.1h0l-.1-.1v-.1h-.2v-.2h-.1v-.1l-.1-.1h-.1v-.1l-.1-.1M209.6-766.7h-.1v-.1h-.1l-.1-.2h0-.1l-.1-.1h0l-.1-.1h-.1v-.1l-.2-.1h0l-.1-.1h0l-.1-.1h-.2v-.1h-.2v-.1h-.1v-.1h-.2 0l-.1-.1h-.2v-.1h-.2M207.3-768.1h0l-.1-.1h-.2l-.1-.1h-.2 0l-.2-.1h0-.2 0-.1l-.1-.1h-.5v-.1h-.2 0-.2 0-.2 0-.2 0H203.9h0-.2 0-.2 0-.4l-.1.1h0-.2 0-.2v.1H202.3v.1h-.2 0l-.1.1h-.2M201.8-768.1h-.1 0-.2v.1h-.2l-.1.1h0l-.2.1h0l-.1.1h-.1v.1h-.2v.1h-.1v.1h-.2v.1h-.1v.1h-.1l-.1.1h0l-.2.1v.1h0l-.2.1h0v.2M199.5-766.6h0l-.1.1h0l-.1.1-.1.1h0l-.1.1v.1h-.1l-.1.2h0l-.1.1h0l-.1.2h0l-.1.1h0l-.1.2h0l-.1.1v.1h-.1v.2h0l-.1.1v.1l-.1.1v.1h0l-.1.2M198-764.3h0v.1l-.1.1v.2h0l-.1.2h0v.2h0l-.1.1v.4l-.1.1v.1h0v.2h0v.2h0v.2h0v.2h-.1v.2h0v.2h0M209.5-757.3h.1v-.1l.1-.1h.1v-.1h.1v-.2h.1l.1-.2h0l.1-.1h0l.1-.1v-.1h.1v-.1l.1-.1h0v-.2h.1v-.1h.1v-.2h0l.1-.1h0v-.2h.1"/><path d="M211-759.3V-759.6h0v-.2h.1V-760.2l.1-.1h0v-.2h0l.1-.2h0v-.4h0l.1-.2h0v-.2h0v-.5"/><path d="M211.4-762h0v-.2h0V-762.6h0v-.2h0v-.4h-.1v-.2h0v-.2h-.1v-.2h0v-.1l-.1-.1v-.1h0l-.1-.2h0v-.1l-.1-.1v-.1M209.4-766.6h0l-.1-.1h0l-.2-.1h0v-.1h-.2v-.1h0l-.2-.1h0l-.1-.1h0l-.1-.1h-.1v-.1h-.2v-.1h-.1 0l-.2-.1h0l-.1-.1h0-.2v-.1h-.2v-.1h-.2M207.2-768h0H206.8v-.1h-.2 0l-.1-.1H206.3l-.1-.1h0-.2 0-.2l-.1-.1H205.4h0-.2 0-.2 0-.2 0-.5 0-.2 0-.4 0-.2 0-.4 0-.2v.1H202.5v.1h-.2 0-.1l-.1.1h-.1 0l-.2.1M202-768h-.2l-.1.1h0-.2v.1h-.1 0l-.2.1h0l-.1.1h0l-.1.1h-.1v.1h-.2 0l-.1.1h0l-.1.1-.1.1h0l-.1.1h-.1v.1h-.2v.1h0l-.2.2h0M197.7-762.1h0v.2h0v.2h0v.2h0v.5h0v.2h.1v.2h0v.2l.1.1v.2h0l.1.2h0v.2h0l.1.1v.2M202-755.7h.1l.1.1h.2l.2.1h.2l.1.1h.4l.1.1H204.3l.2.1h.4M204.9-755.2h.6l.1-.1h.5l.1-.1H206.5v-.1H206.9v-.1H207.2l.1-.1h.2M206.3-757.6h0v-.1h.1v-.1h.1M207.7-759.1l.1-.1h.1v-.2h.2v-.1l.1-.1h0l.1-.1.1-.1h0l.1-.1v-.1h.1l.1-.1h0l.1-.1h0l.1-.1h0v-.1h.1l.1-.1h0v-.1h.1v-.1M209.3-760.7h0v-.1h.1v-.1h.1v-.1h.1v-.1h0M210.3-762.5h0v-.1h0v-.1h0v-.1h0v-.1h0v-.1h0-.1 0v-.1h0-.1v-.1h0l-.1-.1M210-763.3h0v-.1h-.1 0v-.1h0-.1 0v-.1h0-.1 0v-.1M208.3-764.3h0l-.1-.1h0-.1 0-.1v-.1h0-.1 0-.1 0l-.1-.1h0-.1 0-.1M206-765h0-.1 0-.2 0-.1 0-.1 0-.1 0-.1 0-.1 0-.1 0-.1 0l-.1-.1h0-.1 0-.1 0-.1 0M204.5-765.1h0-.1 0-.1 0M202.2-764.8h0-.2 0-.1l-.1.1h0-.2 0l-.1.1h0-.2 0l-.1.1h0-.2 0v.1h-.1 0-.1l-.1.1h0-.1 0l-.1.1h0M199.3-761.4h0v.1h.1v.1h.1v.1h.1M199.6-761h.1v.1h.1v.1h.1v.1h.1v.1h0l.1.1h.1v.1h0l.1.1h0l.1.1h0l.1.1h0l.1.1h0M201.8-758.7h.1v.1h.1v.1h.1v.1h.1v.1h.1M202.8-757.7h0v.1h.1l.1.1h.1v.1h.1v.1h.1l.1.1h0M203.5-757.2h0l.1.1h.2v.1h.4l.1.1M204.3-756.9H205.3l.1-.1h.2l.1-.1h.1l.1-.1h.1"/><path d="M204.6-754.7h-1.2l-.2-.1h-.4l-.2-.1h-.1l-.2-.1-.2-.1h-.2l-.2-.1-.1-.1h-.2l-.2-.2h-.1l-.2-.1-.2-.1-.1-.1-.2-.1-.1-.2h-.2l-.2-.2-.1-.1-.2-.1-.1-.2-.2-.1M199.3-756.8v-.2h-.2l-.2-.2v-.2l-.2-.1-.1-.2-.1-.1-.2-.2v-.1l-.2-.2v-.2l-.1-.1-.1-.2-.1-.1v-.2l-.1-.2-.1-.1v-.2l-.1-.2v-.2l-.1-.1v-.2l-.1-.2v-.5l-.1-.2V-763l.1-.2V-763.5l.1-.2v-.2l.1-.2v-.1l.2-.2v-.2l.1-.1v-.2l.2-.2v-.1l.1-.2.1-.2.1-.1.2-.2v-.1l.2-.2.1-.1.1-.2.2-.1.1-.1.2-.2"/><path d="M199.3-766.9l.2-.1.1-.2h.2l.1-.2.2-.1.2-.1.1-.2h.2l.1-.2h.2l.2-.1.1-.1.2-.1h.2l.1-.2h.4l.2-.1.2-.1H202.8l.2-.1h.2l.2-.1h2.7l.2.1H206.6l.2.1h.2l.2.1.1.1h.2l.2.1.1.1.2.1h.1l.2.2h.2l.1.2h.2l.1.2h.2l.1.2.2.1.1.1.1.2.2.1M209.8-766.9l.1.2h.2v.2l.2.2.1.1.2.2v.1l.2.2v.1l.2.2v.2l.2.1v.2l.1.2v.1l.2.2V-764.1l.1.2v.2l.1.2v.2l.1.1V-762.6l.1.2v1.9l-.1.1v.2l-.1.2v.2l-.1.1v.2l-.1.2v.1l-.1.2-.1.1-.1.2v.1l-.2.2v.2l-.2.1v.2l-.2.1v.1l-.2.2-.1.1-.1.2-.2.1v.2h-.2M209.8-756.8l-.2.1-.1.2h-.2l-.1.2-.2.1-.1.2h-.2l-.1.2h-.2l-.1.2h-.2l-.2.1-.1.1-.2.1h-.2l-.2.1-.1.1h-.2l-.2.1h-.2l-.2.1H206l-.2.1H205.2l-.2.1h-.4M209.5-762.3h.1M343-57.4l-.7.7-.6.7-.6.6-.7.7-.7.7-.7.7-.7.6-.7.7-.8.6-.7.7-.8.6-.8.6-.9.6-.8.6-.9.6-.8.6-1 .6-.9.6-1 .6-.9.5-1 .6-1 .5-1 .6-1 .5-1 .5-1.1.6-1.1.5-1.1.5-1.1.5-1.2.4M262.8-98.2l-.4 1.4-.5 1.3-.5 1.4-.5 1.3-.5 1.2-.6 1.3-.6 1.2-.7 1.1-.6 1.2-.7 1-.8 1.1-.7 1-.8 1-.8 1-.9 1-.8.9-1 .9-.9.8-1 .8-.9.8-1 .8-1 .7-1.1.7-1.1.6-1.2.6-1.1.6-1.2.6-1.2.5-1.3.5-1.3.4M237-70.4h0-.1 0-.2 0-.1v.1h-.2 0-.2v.1h-.1 0-.1l-.1.1h0-.2 0l-.2.1h0-.1 0-.1l-.1.1h0-.2 0-.1M234.9-69.8l-1 .3-.8.2-1 .3-.9.2-.9.3-1 .2-.8.2-1 .3-.9.2-1 .2-.8.2-1 .1-.9.2-1 .2-.9.1-.9.2-1 .1-.9.2h-.9l-1 .2-.9.1-.9.1-1 .1h-.9l-1 .2h-1.9l-.9.1h-.9l-1 .1M202.1-65.2h-1.9l-1-.1h-.9l-.9-.1-1-.1-.9-.1h-1l-.9-.2-.9-.1-1-.1-.9-.1-.9-.2-1-.1-.9-.2-.9-.1-1-.2-.9-.2-.9-.1-1-.2-.8-.2-1-.2-.9-.3-1-.2-.8-.2-1-.3-.9-.2-.9-.3-1-.2-.8-.3M174.2-69.8h-.1 0-.2v-.1h-.2 0l-.2-.1h0-.1 0-.1l-.1-.1h0-.2 0-.1v-.1h-.2 0-.2v-.1h0-.2 0-.1v-.1h-.1M172-70.4h0-.1 0M171.9-70.5l-1.3-.4-1.2-.5-1.2-.5-1.2-.6-1.2-.6-1.1-.6-1.1-.6-1-.7-1.1-.7-1-.8-1-.8-1-.8-1-.8-.8-.9-.9-.9-.8-1-.8-1-.8-1-.8-1-.7-1-.7-1.1-.7-1.2-.6-1.1-.6-1.2-.6-1.3-.5-1.2-.6-1.3-.5-1.4-.4-1.3-.5-1.4M146.2-98.2l-.9-3.2-.8-3.1-.9-3.3-.8-3.2-.8-3.3-.7-3.4-.7-3.4-.8-3.5-.6-3.5-.7-3.5-.6-3.6-.6-3.7-.6-3.6-.5-3.8-.6-3.8-.5-3.8-.4-3.9-.5-3.9-.4-4-.4-4-.4-4-.3-4.1-.3-4.2-.3-4.2-.3-4.2-.2-4.3-.2-4.4-.2-4.4-.2-4.4-.1-4.5M130.9-234.3v-.8l.1-.8.2-.7.1-.8.2-.7.2-.7.2-.6.3-.6.2-.7.4-.5.3-.6.3-.5.4-.5.4-.5.5-.5.4-.4.5-.4.6-.4.5-.4.6-.3.6-.3.6-.3.7-.3.6-.2.7-.3.8-.1.7-.2.8-.2h.8l.9-.2M144.5-247.8H146.2M264.6-247.8l.8.1.9.1.7.2.8.2.7.1.7.3.7.2.7.3.6.3.6.3.6.3.5.4.5.4.5.4.5.4.4.5.4.5.4.5.4.5.3.6.3.5.3.7.3.6.2.6.2.7.2.7.1.8.1.7.1.8M278.2-212.4l-.1 4.5-.2 4.4-.2 4.4-.2 4.4-.2 4.3-.3 4.2-.3 4.2-.3 4.2-.4 4-.3 4.1-.4 4-.4 4-.5 4-.5 3.8-.5 3.8-.5 3.8-.5 3.8-.6 3.6-.6 3.7-.7 3.6-.6 3.5-.7 3.5-.7 3.5-.7 3.4-.8 3.4-.8 3.3-.8 3.2-.8 3.3-.9 3.1M280-92.2v.3l-.2.2v.3l-.1.3-.1.3-.1.3v.3l-.2.3v.3l-.1.3-.1.3-.1.2-.1.3v.3l-.2.3v.3l-.2.3v.3l-.1.3-.1.3-.1.2-.1.3-.1.3v.3l-.2.3v.3l-.2.3v.3l-.2.2v.3M277.4-99.9l.8-3.3.8-3.4.7-3.4.8-3.4.7-3.4.8-3.4.6-3.4.7-3.4.7-3.5.6-3.4.6-3.5.6-3.4.5-3.5.6-3.5.5-3.5.5-3.5.5-3.6.4-3.5.5-3.5.4-3.6.4-3.5.4-3.6.3-3.6.3-3.6.3-3.6.3-3.6.3-3.6.2-3.6.3-3.7.2-3.6M294-231.6l-.4-.6-.4-.7-.4-.6-.4-.6-.4-.7-.4-.6-.4-.6-.5-.6-.4-.6-.5-.5-.5-.6-.5-.6-.5-.5-.5-.5-.5-.6-.6-.5-.5-.5-.6-.5-.6-.5-.6-.5-.6-.5-.6-.4-.6-.5-.7-.4-.6-.5-.7-.4-.7-.4-.7-.4-.7-.4-.7-.4M277.8-247.3l-.3-.2-.4-.1-.4-.2-.3-.1-.4-.2-.4-.1-.3-.1-.4-.2-.4-.1-.4-.2h-.4l-.4-.2-.4-.1-.3-.2h-.4l-.4-.2-.4-.1-.5-.2h-.4l-.4-.2h-.4l-.4-.2-.4-.1-.5-.1-.4-.1-.4-.1-.4-.1h-.5l-.4-.2h-.5M265.8-251l-2-.3-1.8-.3-2-.2-2-.3-1.9-.3-2-.2-1.9-.2-2-.3-1.9-.2-2-.2-1.9-.2-2-.2-1.9-.2-2-.1-2-.2-1.9-.1-2-.2h-2l-1.9-.2-2-.1-2-.1-1.9-.1h-2l-2-.1-2-.1H213l-2-.1h-4M202.1-255.5h-8l-2 .1h-1.9l-2 .1-2 .1-2 .1-1.9.1-2 .1-2 .1-2 .2-1.9.1-2 .2-2 .1-1.9.2-2 .2-1.9.1-2 .2-1.9.2-2 .3-1.9.2-2 .2-1.9.3-2 .2-1.9.3-2 .2-1.8.3-2 .3M143.2-251l-.4.1-.5.1-.4.1-.4.1-.5.1-.4.1-.4.1-.4.1-.4.1-.5.1-.4.1-.4.2h-.4l-.4.2-.4.1-.4.1-.4.2h-.4l-.4.2-.3.2h-.4l-.4.2-.4.2-.4.1-.3.1-.4.2-.4.1-.3.2-.4.1-.3.2M131.3-247.3l-.8.4-.7.4-.6.4-.7.4-.7.4-.6.5-.7.4-.6.5-.6.4-.6.5-.6.5-.6.5-.6.5-.5.5-.6.5-.5.6-.5.5-.5.6-.5.5-.5.6-.5.5-.5.6-.4.6-.4.6-.5.6-.4.7-.4.6-.4.6-.3.7-.4.6M116.4-205l.2 3.6.2 3.7.3 3.6.2 3.6.3 3.6.3 3.6.4 3.6.3 3.6.4 3.6.4 3.5.4 3.6.4 3.5.5 3.6.5 3.5.5 3.5.5 3.5.5 3.5.6 3.5.6 3.4.6 3.5.6 3.4.7 3.5.6 3.4.7 3.4.7 3.4.8 3.4.7 3.4.8 3.4.8 3.4.8 3.3M129-92.2h-.4l-.2-.1h-.5l-.2-.1h-.1l-.2-.1h-.1l-.2-.1h-.2l-.1-.1h-.2l-.1-.1-.2-.1h-.1l-.2-.2h-.2l-.1-.1-.2-.1-.1-.1-.2-.1-.1-.1-.1-.1-.2-.1-.1-.1-.2-.1M124.4-94.1l-.2-.2-.2-.2-.2-.2-.2-.2-.2-.2-.2-.2-.2-.2-.2-.2-.2-.2-.1-.3-.2-.2-.2-.3-.2-.2-.2-.3-.1-.3-.2-.2-.2-.3-.2-.3-.1-.3-.2-.3-.2-.4-.2-.3-.1-.3-.2-.4-.1-.3-.2-.4-.2-.3-.1-.4-.2-.4M119-102.5l-2.4-6.2-2.4-6.4-2.3-6.3-2.2-6.3-2.1-6.4-2.1-6.4-2-6.4-2-6.4-1.9-6.4-1.8-6.5-1.7-6.5-1.7-6.5-1.6-6.5-1.5-6.5-1.5-6.6-1.4-6.5-1.3-6.6-1.2-6.6-1.2-6.7-1.1-6.6-1-6.7-1-6.7-1-6.7-.8-6.7-.7-6.7-.7-6.8-.6-6.8-.6-6.7-.5-6.9M76.3-299.3h0-.2v-.1h-.2l-.1-.1h-.1v-.1h-.2 0l-.2-.1h0l-.1-.1H75l-.1-.1h0-.2v-.1h-.1l-.1-.1h-.2l-.1-.1h0-.2v-.1h-.2M69.3-299.2l-.5.4-.5.3-.5.4-.5.4-.5.3-.5.4-.5.4-.5.3-.5.4-.5.3-.5.4-.5.3-.5.4-.5.3-.5.3-.5.4-.5.3-.5.3-.5.4-.5.3-.6.3-.5.3-.5.3-.5.3-.5.3-.5.3-.6.4-.5.2-.5.3M54-289.2v5l-.3 5v5l-.2 4.8-.1 4.9-.1 4.8v4.7l-.1 4.7v4.6L53-241v18l.1 4.3.1 4.3.1 4.3.1 4.2.1 4.2.2 4.1.2 4.1.1 4 .2 4 .3 4 .2 3.9.2 3.8.3 3.8.3 3.8.3 3.7M56.2-159h0v.1h0v.1h0M56.3-158.8l.3 2.6.4 2.6.4 2.5.4 2.5.4 2.5.4 2.5.4 2.4.4 2.5.5 2.4.4 2.4.5 2.3.4 2.4.5 2.3.5 2.3.5 2.3.5 2.3.5 2.3.5 2.2.5 2.2.6 2.2.5 2.2.6 2.1.5 2.2.6 2 .6 2.2.5 2 .6 2.1.6 2 .7 2M71-90.2h.1v.2h0v.1h.1v.2h0v.1h0l.1.1v.1h0v.1h0v.1l.1.1h0v.1h0v.2h.1v.1h0v.2M71.6-88.4L73-87l1.3 1.4 1.5 1.3 1.4 1.4 1.5 1.3 1.6 1.3 1.5 1.2 1.6 1.2 1.7 1.2 1.7 1.2 1.7 1.1 1.8 1.2 1.7 1 1.9 1 1.8 1.1 2 1 1.9 1 2 1 2 .9 2 .9 2.1.8 2.2.9 2.1.8 2.2.7 2.3.8 2.3.7 2.3.7 2.3.7 2.4.6M128.2-58h.2l.1.1H128.8l.2.1H129.3l.1.1H129.7l.2.1H130.2l.1.1H130.6l.2.1h.2l.1.1H131.4l.2.1H131.9l.1.1H132.3l.2.1h.2M132.8-57l2.3.5 2.2.5 2.3.4 2.3.4 2.3.4 2.2.3 2.3.4 2.3.3 2.3.3 2.3.3 2.3.3 2.3.3 2.3.3 2.3.2 2.3.2 2.3.3 2.3.2 2.4.1 2.3.2 2.3.2 2.3.1 2.4.1 2.3.1 2.3.1 2.4.1h2.3l2.4.1h2.3l2.4.1M207-50.2H214l2.4-.1h2.3l2.3-.2h2.4l2.3-.2h2.3l2.4-.2 2.3-.2 2.3-.2 2.3-.1 2.3-.2 2.3-.3 2.4-.2 2.3-.2 2.3-.3 2.3-.3 2.3-.3 2.2-.3 2.3-.3 2.3-.3 2.3-.4 2.3-.3 2.3-.4 2.2-.4 2.3-.4 2.3-.5 2.2-.4M276.2-57H277l.2-.1H277.5l.1-.1h.2l.1-.1H278.2l.2-.1H278.7l.2-.1H279.2l.1-.1H279.6l.2-.1H280l.1-.1h.2l.1-.1H280.8M280.9-58l2.4-.6 2.4-.6 2.3-.7 2.3-.7 2.3-.7 2.2-.8 2.2-.7 2.2-.8 2.1-.9 2.1-.8 2-1 2-.9 2-.9 2-1 1.9-1 1.9-1 1.8-1 1.8-1.1 1.7-1.2 1.8-1.1 1.6-1.2 1.7-1.2 1.6-1.2 1.6-1.2 1.5-1.3 1.5-1.3 1.5-1.4 1.4-1.3L336-87l1.3-1.4M314.8-33.7l-2.6 1-2.6 1-2.6.9-2.6.9-2.6.9-2.6.9-2.6.8-2.6.8-2.6.8-2.6.8-2.6.7-2.6.7-2.6.7-2.6.7-2.6.7-2.6.6-2.6.6-2.6.6-2.6.6-2.6.5-2.6.5-2.6.5-2.6.4-2.7.5-2.6.4-2.6.4-2.6.4-2.6.3-2.6.3M355-289.2l-.5-.3-.6-.2-.5-.3-.5-.3-.5-.4-.5-.3-.6-.3-.5-.3-.5-.3-.5-.3-.5-.3-.5-.4-.5-.3-.5-.3-.5-.4-.6-.3-.5-.3-.5-.4-.5-.3-.5-.4-.5-.3-.5-.4-.5-.3-.5-.4-.5-.4-.5-.3-.4-.4-.5-.4-.5-.3-.5-.4M335.4-300.4H335v.1h-.2 0l-.1.1h-.1l-.1.1h0-.2v.1h-.2 0l-.1.1h-.1l-.1.1h0-.2v.1h-.2v.1h-.2l-.1.1h-.1 0l-.2.1h0l-.2.1M332.8-299.3l-.1 1v1l-.1 1v1l-.1 1-.1 1v1l-.1 1-.1 1v1l-.1 1.1-.1 1v1l-.2 1v1l-.1 1-.1 1v1l-.2 1v1l-.1 1-.1 1-.1 1-.1 1-.1 1v1l-.2 1v1l-.2 1v1M330.4-269.2v.3l.1.2v.4l.1.3v.2l.1.2v.5l.1.2v.7l.1.3v1.5l.1.3V-261.8M331-261.8v1.3l-.1.4v.8l-.1.4v.3l-.1.4v.4l-.1.4v.4l-.1.3-.1.4v.3l-.2.4v.3l-.1.4-.1.3-.1.4-.1.3-.1.3-.1.4-.1.3-.2.3v.3l-.2.3-.1.3-.2.3-.1.3M328.7-251h0v.1h-.1v.1h0v.1h0-.1v.1h0v.1h-.1v.1h0v.1h-.1 0v.1h0l-.1.1h0v.1M328.1-250l-.7 5-.7 5.1-.8 5-.8 5.1-.8 5-1 5-.8 5-1 5-1 5-1 5-1.2 5-1 5-1.3 5-1.2 4.9-1.2 4.9-1.3 4.9-1.3 4.9-1.4 4.9-1.4 4.9-1.5 4.8-1.5 4.9-1.5 4.8-1.6 4.9-1.6 4.8-1.6 4.8-1.7 4.8-1.8 4.8-1.7 4.8-1.8 4.8-1.9 4.7M290-102.5l-.2.4-.1.4-.2.4-.1.3-.2.4-.2.3-.1.4-.2.3-.2.3-.1.4-.2.3-.2.3-.1.3-.2.3-.2.2-.2.3-.2.3-.1.2-.2.3-.2.2-.2.3-.2.2-.2.2-.2.2-.1.2-.2.2-.2.2-.2.2-.2.2-.2.2"/></g></svg>