M48
; DRILL file {KiCad (5.1.9-0-10_14)} date Monday, May 24, 2021 at 09:31:50 AM
; FORMAT={-:-/ absolute / metric / decimal}
; #@! TF.CreationDate,2021-05-24T09:31:50+02:00
; #@! TF.GenerationSoftware,Kicad,Pcbnew,(5.1.9-0-10_14)
; #@! TF.FileFunction,Plated,1,2,PTH
FMAT,2
METRIC
T1C1.000
T2C1.016
T3C3.200
%
G90
G05
T1
X10.668Y32.766
X12.053Y35.606
X13.438Y32.766
X14.823Y35.606
X16.208Y32.766
X17.593Y35.606
X18.978Y32.766
X20.363Y35.606
X21.748Y32.766
T2
X9.652Y24.892
X9.652Y2.032
X12.192Y24.892
X12.192Y2.032
X14.732Y24.892
X14.732Y2.032
X17.272Y24.892
X17.272Y2.032
X19.812Y24.892
X19.812Y2.032
X22.352Y24.892
X22.352Y2.032
X24.892Y24.892
X24.892Y2.032
X27.432Y24.892
X27.432Y2.032
T3
X3.708Y34.186
X28.708Y34.186
T0
M30
